<?xml version="1.0" encoding="utf-8"?>
<!-- Generator: Adobe Illustrator 23.0.4, SVG Export Plug-In . SVG Version: 6.00 Build 0)  -->
<svg version="1.1" id="Ebene_1" xmlns="http://www.w3.org/2000/svg" xmlns:xlink="http://www.w3.org/1999/xlink" x="0px" y="0px"
	 viewBox="0 0 381.3 128.9" style="enable-background:new 0 0 381.3 128.9;" xml:space="preserve">
<style type="text/css">
	.st0{fill:#FFFFFF;}
	.st1{fill:#6B1E24;}
</style>
<g>
	<g>
		<g>
			<path d="M67.7,103.7c-7.4,0-13.6-2.7-18.7-8.1c-5-5.4-7.5-12.9-7.5-22.4c0-9,2.3-16.5,6.9-22.5c4.6-6.1,10.9-9.1,18.7-9.1
				c2.7,0,5.2,0.5,7.6,1.4v11.3c-2.2-0.9-4.4-1.4-6.6-1.4c-4,0-7.3,1.8-9.8,5.3c-2.5,3.5-3.8,8.3-3.8,14.2c0,5.7,1.3,10.3,3.9,13.8
				c2.6,3.5,5.9,5.3,9.9,5.3c2,0,4.1-0.5,6.4-1.4v12.2c-0.7,0.3-1.8,0.6-3.2,0.9C70.1,103.5,68.9,103.7,67.7,103.7z"/>
			<path d="M77.2,102.9l14.1-60.6H104l13.4,60.6h-12.1l-2-10.6H91.1l-1.9,10.6H77.2z M93.4,82.9h8.1l-4-28L93.4,82.9z"/>
			<path d="M127.6,102.9V53.5h-9.3V42.3h30.8v11.2h-9.3v49.4H127.6z"/>
			<path d="M155,102.9V42.3h25.6v11.2h-13.8v12.2h12.5v11.1h-12.5v14.2h13.8v11.8H155z"/>
			<path d="M188.8,102.9V42.3h12.7c6.9,0,11.9,1.3,15,4c3.1,2.7,4.7,7,4.7,13c0,8.4-3.2,13.7-9.6,15.9l11.6,27.6h-12.8l-9.9-25.2
				v25.2H188.8z M200.6,68.6h1.4c5.3,0,7.9-2.9,7.9-8.6c0-2.8-0.6-4.9-1.7-6.3c-1.1-1.4-3.1-2-6-2h-1.6V68.6z"/>
			<path d="M228.4,102.9V42.3h12.4v60.6H228.4z"/>
			<path d="M250.9,102.9V42.3h13.5l14.1,45.1l0-45.1h10v60.6l-12.8,0l-15.3-44l0.1,44H250.9z"/>
			<path d="M315.4,68.7H338l0.1,2.8c0,10.3-1.9,18.2-5.7,23.8c-3.8,5.6-8.9,8.4-15.4,8.4c-6.3,0-11.4-2.8-15.2-8.3
				c-3.8-5.5-5.7-13.1-5.7-22.7s1.9-17.2,5.8-22.8c3.9-5.6,9.2-8.3,16-8.3c9.2,0,15.4,5.2,18.6,15.6l-11,5c-0.9-6-3.5-9-7.9-9
				c-6.2,0-9.3,6.5-9.3,19.5c0,13.1,3.1,19.6,9.3,19.6c2.5,0,4.5-1,6.2-3.1c1.6-2.1,2.4-5.4,2.4-9.8h-10.8V68.7z"/>
		</g>
	</g>
	<g>
		<g>
			<path class="st0" d="M157.1,38.8c0,0-0.1,0-0.3-0.1c0-0.1,0-0.1-0.1-0.2c0-0.1,0-0.1,0-0.2l0.1-0.3c0.1-0.4,0.2-0.8,0.3-1.2
				c0.1-0.5,0.4-1.1,0.6-1.5c0.5-1,1-2.1,1.8-3.5c1.9-3.4,5.7-9.5,5.7-9.5c0.3-0.5,0.7-1.2,0.9-1.6c0,0,0.3-0.5,0.6-1.2
				c0.3-0.7,0.5-1.2,0.5-1.2c0.3-0.7,0.4-1.7,0.4-2.5l0-0.6c-0.1-1.4-1.1-2.6-2.4-2.9l-0.4,0c-0.3,0-0.6,0.1-1.1,0.2l-0.4,0.2
				c-0.4,0.2-0.8,0.6-1.4,1.2c0,0-0.7,0.8-1.3,1.5c-0.8,1-1.5,2-2.2,2.9c-0.8,1.2-1.8,2.6-2.6,4.1c-0.5,0.9-1,1.8-1.5,2.7
				c-0.8,1.6-1.5,2.9-2.1,4.3c-0.7,1.6-1.3,3.2-1.8,4.9c-0.2,0.7-0.4,1.4-0.5,2c-0.1,0.6-0.3,1.5-0.3,2.4c0,1,0.2,2,0.6,2.8
				c0.4,0.7,0.9,1.4,1.5,1.8c0.6,0.4,1.2,0.6,1.5,0.8c0.8,0.3,1.5,0.5,2.3,0.5c0.4,0,0.7,0,0.9,0c0.4,0,0.6,0,0.6,0
				c0.3,0,1.7-0.2,2.5-1.1c0.8-0.9,0.9-2.4,0.1-3.4C159,39.2,157.8,38.8,157.1,38.8z"/>
			<path class="st0" d="M146.2,38.8c0,0-0.3-0.1-0.6-0.3c0-0.2,0.1-0.5,0.1-0.7c0,0,0.1-0.2,0.1-0.5c0.1-0.2,0.1-0.3,0.1-0.4
				c0.2-0.4,0.5-1,0.6-1.4c0,0,0.9-1.8,1.6-3c0.9-1.7,1.9-3.3,2.9-4.9l0.1-0.2c1.6-2.6,4.4-7.2,4.4-7.2c0.3-0.5,0.7-1.2,0.9-1.6
				c0.2-0.5,0.5-1.2,0.6-1.7l0.1-0.6c0-0.8-0.1-1.4-0.1-1.5c-0.3-1.2-1.4-2.2-2.6-2.5l-0.4,0c-0.4,0-0.8,0.1-1.2,0.3l-0.6,0.2
				l-0.3,0.3c-0.2,0.2-0.7,0.7-1,1c0,0-0.9,1-1.6,1.8c-0.8,1-1.5,2-2.2,2.9l-0.4,0.6c-0.9,1.3-1.9,2.6-2.7,4.1
				c-0.4,0.7-0.7,1.4-0.7,1.4c-0.2,0.5-0.5,1.2-0.7,1.7l-1.2,2.9c-0.3-0.5-0.8-0.9-1.4-1.1l-0.3-0.1h-0.3c-1,0-1.8,0.6-2.2,0.8
				c0,0-0.9,0.6-1.6,1.3c-0.5,0.5-1,1-1.4,1.6c0.3-0.7,0.4-1.5,0.4-2.1l0-0.2l-0.1-0.5c-0.1-0.5-0.3-1-0.5-1.4
				c-0.4-0.7-0.9-1.3-1.5-1.8c-0.5-0.3-1.1-0.6-1.6-0.7c-0.6-0.1-1.3-0.1-1.9-0.1c-0.9,0.1-1.8,0.3-2.6,0.7c-0.7,0.3-1.5,0.8-2,1.2
				c-0.2-0.4-0.4-1-0.6-1.3l-0.1-0.2l-0.3-0.3c-0.5-0.5-1.1-0.9-1.8-1.1c-0.7-0.2-1.3-0.2-1.7-0.2l-0.5,0l-0.1,0
				c-0.5,0-1.3,0.1-1.8,0.2c-0.2-0.7-0.5-1.3-0.9-1.8c-0.4-0.5-0.8-1-1.2-1.3c-0.8-0.6-1.6-1-1.7-1c-0.8-0.4-1.9-0.5-2.4-0.4
				c-0.4,0.1-1,0.2-1.5,0.4c0,0-2.8,0.8-4.6,1.1c-1.2,0.2-2.3,0.3-3.5,0.4c-1.4,0-3.3-0.1-3.3-0.1c-0.3,0-0.8-0.1-1.1-0.2
				c-0.2-0.1-1.9-0.7-3.4-0.7c-0.9,0-1.9,0.1-1.9,0.1c-1,0.1-1.7,0.6-2.1,1.4c-0.3,0.6-0.3,1.4,0,2c0.1,0.3,0.3,0.6,0.4,0.7
				c0.1,0.1,0.3,0.5,0.7,1c0.1,0.1,0.3,0.4,0.8,0.9l0.4,0.4c0.3,0.3,1,0.7,1.4,1c0.1,0.1,1.2,0.7,2.4,1c0.6,0.1,0.7,0.1,0.8,0.1
				c0.5,0,1.4,0,1.9,0c0,0,1.6-0.1,2.9-0.2c2.3-0.2,5.7-0.8,7.2-1c-0.3,0.5-0.5,0.9-0.8,1.3c-0.4,0.5-0.8,1.1-1.3,1.6
				c-0.5,0.5-1,1-1.5,1.5c-1.3,1.2-2.6,2.5-3.7,4c-0.5,0.7-1.2,1.5-1.6,2.6c-0.4,1-0.6,2-0.7,2.1c-0.1,0.4-0.3,1.6,0.2,2.6
				c0.4,0.8,1.3,1.3,2.3,1.3c0.3,0,0.6,0,1-0.1c0.1,0,0.8-0.2,1.6-0.6c0.7-0.3,1.3-0.6,1.8-1.1c0.7-0.5,1.2-1,1.8-1.6
				c0.5-0.5,0.9-1,0.9-1c0.4-0.4,0.9-1,1.3-1.4c0,0,1.8-2.2,3-3.5c0.7-0.7,1.5-1.6,1.5-1.6c0.3-0.3,0.7-0.7,1-0.9l0.3-0.2
				c0.4-0.4,0.9-0.7,1.4-1c-0.2,0.4-0.5,0.7-0.7,1.1c-1.2,1.8-3.2,4.7-3.3,4.7c-0.4,0.5-0.8,1.3-1,2c0,0.1-0.2,0.6-0.3,1.4
				c-0.1,0.9,0,1.6,0.1,1.7c0.4,2.2,1.8,2.5,2.4,2.5c0.2,0,0.7,0,1.9-0.6c0.1,0,0.6-0.3,1.2-0.7c1-0.7,1.8-1.6,2.5-2.5
				c0.5-0.6,0.9-1.2,1.4-1.8c0.9-1.2,1.8-2.3,2.7-3.3c0.9-1,2.5-2.4,2.5-2.4c0.1-0.1,0.2-0.2,0.4-0.3c-0.2,0.4-0.3,0.8-0.4,1.2
				c-0.3,0.7-0.6,1.7-0.7,2.8c-0.2,1-0.2,2.1,0,3.4c0.1,0.5,0.2,1.3,0.4,2.1c0.1,0.4,0.3,0.8,0.5,1.1c0.3,0.6,0.7,1.1,1.2,1.5
				c0.7,0.7,1.6,1.2,2.6,1.5c0.9,0.3,1.8,0.5,2.6,0.6l0.1,0c0.5,0.1,1.1,0.2,1.8,0.2c0.1,0,0.2,0,0.3,0c0.6,0,0.8-0.1,1-0.1
				c0.9-0.2,1.6-0.9,1.8-1.7c0.1-0.5,0.1-1-0.1-1.5c0.3,0,0.6,0,0.9-0.1c0.6-0.1,1.3-0.4,1.8-0.8c0.1-0.1,0.3-0.2,0.4-0.3
				c0.1,0.1,0.2,0.1,0.3,0.2c0.4,0.2,0.8,0.3,1.2,0.4c0.6,0.2,1.1,0.3,1.7,0.3c0.5,0.1,1,0.1,1.6,0.1c0.4,0,0.7,0,0.7,0
				c1.6-0.1,2.8-1.1,2.8-2.5c0-0.8-0.4-1.7-1-2.2C147.4,39.3,146.4,38.9,146.2,38.8z M132,39.5c0-0.1-0.1-0.2-0.1-0.2
				c-0.1-0.3-0.1-0.6-0.1-0.6c0-0.3,0-0.7,0-0.8c0-0.1,0.1-0.2,0.1-0.3c0,0,0,0.1,0,0.2C131.9,38.3,131.9,38.9,132,39.5z"/>
			<path class="st0" d="M183.6,35.2c-0.8,0-1.8,0.4-2,0.5c0,0-1.5,0.7-2.7,1.1c-0.7,0.2-1.5,0.4-2.6,0.7c-0.9,0.2-1.9,0.4-3,0.4
				c-0.8,0-1.5,0-2.3,0l-0.4,0c-0.4,0-0.8,0-1.1-0.1c0.6-0.2,1.2-0.5,1.7-0.8c0.8-0.4,1.8-0.9,2.7-1.4c0.8-0.5,1.4-1,2.1-1.6
				c0.9-0.8,1.5-1.6,1.9-2.5c0.3-0.8,0.5-1.6,0.5-2.4c0-0.8-0.2-1.7-0.5-2.4c-0.3-0.7-0.7-1.3-1.2-2c-0.3-0.4-0.8-0.9-1.4-1.2
				c-0.4-0.2-0.9-0.3-1.5-0.3c-0.1,0-0.3,0-0.4,0c-0.6,0-1.3,0.2-1.9,0.6c-0.2,0.1-0.5,0.2-0.7,0.4l-0.2,0.1
				c-0.4,0.2-0.8,0.5-1.2,0.7c-0.6,0.4-1.1,0.8-1.7,1.2c-0.9,0.7-1.7,1.5-2.5,2.3c-1,1-1.9,2.1-2.6,3.1c-0.5,0.7-1.2,1.8-1.5,3
				c-0.2,0.7-0.3,1.3-0.3,1.9c0,0.9,0.2,1.8,0.5,2.6l0.1,0.4l0.2,0.3c0.3,0.5,0.9,1.2,1.3,1.6c0.1,0.1,0.9,0.8,1.8,1.3
				c0.6,0.3,1.3,0.6,2,0.8c0.9,0.3,1.8,0.5,2.7,0.6c0.7,0.1,1.4,0.1,2.2,0.1h0c0.6,0,1.2,0,1.9-0.1c1-0.1,2.1-0.2,3.3-0.4
				c1.6-0.3,2.8-0.6,3.9-1c1.1-0.4,2.4-1,2.4-1.1c0.5-0.2,1.1-0.6,1.5-0.9c0.9-0.7,1.2-2,1.2-2.8l0-0.2
				C186,36.4,185,35.2,183.6,35.2z"/>
			<path class="st0" d="M281.2,26.1l0.3,0.2l0.8,0.1c0.2,0,0.3,0,0.5,0c0.8,0,1.4-0.2,1.6-0.3c1-0.5,2-1.6,1.8-2.9
				c-0.2-1.1-1.4-2.5-1.4-2.5c-0.5-0.5-1.1-0.7-1.7-0.8l-0.6-0.1l-0.3,0.1c-0.8,0.2-1.6,0.7-2,1.1l-0.4,0.4l-0.2,0.8
				c-0.2,0.5-0.3,0.9-0.1,1.6C279.6,24.7,280.4,25.7,281.2,26.1z"/>
			<path class="st0" d="M139.2,27.1l0.1,0c0,0,0,0,0,0c0.1,0,0.2,0,0.7-0.1l0.6-0.1c1.4-0.4,2.2-1.7,2-3.2c0-0.3-0.2-0.9-0.7-1.6
				c-0.5-0.6-1.1-1.1-1.8-1.3l-0.9-0.3l-0.5,0.2c-0.8,0.2-1.8,0.8-2.3,1.8l-0.1,0.3l-0.1,0.6c-0.1,0.6-0.1,1.1,0.1,1.5
				C136.8,26.1,138,27,139.2,27.1z"/>
			<path class="st0" d="M283.9,37.3c-0.1,0-0.4-0.1-0.7-0.1l0.1-0.2c0.3-0.6,0.5-1.2,0.8-1.8c0.1-0.2,0.2-0.5,0.3-0.7
				c0.3-0.5,0.5-1.1,0.8-1.6c0.3-0.8,0.5-1.4,0.5-1.5c0.2-0.8,0-1.6-0.4-2.2c-0.4-0.6-1.2-1.1-2-1.2c-1-0.1-1.7-0.1-2.2,0.2
				c-0.1,0-0.3,0.2-1.2,0.7c-0.1,0.1-0.6,0.4-1.1,1l-0.3,0.3c-0.2,0.2-0.5,0.8-0.8,1.2c0,0-0.6,1-1.1,1.8c-0.4,0.7-0.6,1.3-0.8,2
				c-0.6,0-1.2,0.1-1.7,0.4c0,0-1.8,0.9-3.1,1.3c-0.9,0.3-1.8,0.5-2.9,0.7c0-0.2,0-0.3,0-0.5c0,0,0.1-0.7,0.3-1.4
				c0.1-0.4,0.2-0.7,0.5-1.2c0.1-0.2,0.2-0.3,0.2-0.4c0,0,0.1-0.1,0.4-0.3c0.5-0.3,1.1-0.6,1.5-0.9c1.3-0.7,3.4-1.5,3.4-1.5
				c0.5-0.2,1.2-0.5,1.6-0.8l0.5-0.4c0.7-0.7,1-1.3,1.1-1.5c0.3-0.9,0.3-1.8-0.2-2.4c-0.4-0.6-1.1-1-1.9-1l-0.4,0
				c-0.2,0-0.5,0.1-0.8,0.1c0,0,0,0,0,0c0.2-0.4,0.3-0.7,0.5-1.1c0.4-0.9,0.9-1.8,1.7-2.9l0.5-0.7c0.8-1.2,0.6-2.9-0.4-3.8
				c-0.2-0.2-0.6-0.5-1.3-0.9c-0.9-0.4-1.8-0.5-2.5-0.3l-0.7,0.2l-0.4,0.3c-0.3,0.3-0.8,0.9-1.2,1.4l-1.1,1.5
				c-0.3,0.4-0.8,1.2-1.1,1.6l-4.1,7.1c0,0.1-0.1,0.2-0.1,0.2c0,0,0,0,0,0c0,0-1,0.2-1.9,0.3c-0.5,0.1-0.9,0.1-0.9,0.1
				c-1.1,0.1-2.4,0.7-2.8,1.9c-0.1,0.2-0.2,0.9-0.1,1.7c0,0,0,0,0,0l-1.6-2.6c0,0,0-0.1-0.1-0.2c0.2,0,0.3,0,0.5,0l0.9-0.2
				c0.5-0.1,1-0.4,1.5-0.7c0.8-0.5,1.4-1.2,1.8-1.9c0.2-0.5,0.4-0.9,0.5-1.2c0.1-0.6,0.1-1.5,0-2.2l-0.1-0.4l-0.6-1l-0.2-0.2
				c-0.3-0.3-0.8-0.7-1.2-0.9l-0.3-0.2c-0.5-0.4-1.3-0.8-2.1-0.8l-0.3,0l-0.3,0.1c-0.4,0.1-1.1,0.5-1.4,0.6c0,0-0.4,0.2-1,0.6
				c-0.5,0.3-0.9,0.6-1.3,0.9c-0.6,0.5-1.3,1-1.9,1.6c-0.5,0.6-0.9,1.2-1.2,1.9c-0.3,0.7-0.5,1.4-0.6,2.2c-0.1,1.1-0.1,2.1,0.3,3
				l0.1,0.4l0.2,0.3c0.3,0.4,0.7,1.1,1,1.5l1.5,2.1c0.2,0.2,0.4,0.6,0.5,0.8c0,0,0,0.1,0,0.1c0,0.1-0.1,0.2-0.1,0.3
				c-0.1,0.3-0.4,0.7-0.6,1c-0.2,0.2-0.4,0.4-0.6,0.5c-0.1,0.1-0.3,0.1-0.5,0.2c-0.3,0.1-0.5,0.1-0.8,0.1c-0.1,0-0.1,0-0.2,0
				c-0.2,0-0.5-0.2-0.9-0.3c-0.7-0.3-1.1-0.6-1.6-0.9c-0.4-0.2-0.7-0.5-1-0.8c-0.3-0.3-0.6-0.5-1-0.8c-0.6-0.5-1.1-0.7-1.1-0.7
				c-1.1-0.7-2.4-0.6-3.1,0.2c-0.4,0.4-0.6,0.9-0.6,1.5c-0.6,0.1-1.8,0.4-2.6,0.5c-0.4,0-0.8,0-1.3-0.1l-0.1,0c0,0-0.1,0-0.1-0.1
				l0,0c0-0.2,0.2-0.6,0.2-0.8l2.5-5.7c0.6-1.3,0.3-2.7-0.6-3.4c-0.3-0.2-0.9-0.6-1.6-0.7l-0.2,0c-0.2,0-0.6,0-1.1,0
				c-0.2,0-0.8,0.1-1.6,0.4c-0.7,0.3-1.3,0.9-1.9,1.6c-0.6,0.8-1,1.5-1.4,2.4c-0.8,1.7-2,4.3-2.1,4.4c-0.1,0.3-0.5,0.9-0.7,1.2
				c0,0-0.2,0.3-0.6,0.8c-0.5,0.6-0.8,0.8-1,0.8c-0.1,0-0.3,0.1-0.4,0.1c-0.2,0-0.3,0-0.5,0c-0.1,0-0.1,0-0.1,0c0,0,0,0,0,0
				c0-0.1,0-0.2,0.1-0.4c0.1-0.5,0.5-1.1,1-1.8l0.2-0.3c0.6-1,1.3-1.9,1.9-3c0.3-0.5,0.6-1.2,0.9-1.9c0.4-1,0.5-2,0.6-2.2
				c0.1-0.9,0-2.2-0.9-3c-0.3-0.3-0.8-0.6-1.7-0.6c-0.5,0-1.1,0.1-1.7,0.4c-0.1,0-0.5,0.3-1.1,0.7c-0.9,0.6-1.7,1.4-2.5,2.5
				c-0.6,0.8-1.2,1.7-1.7,2.7c-0.5,0.9-0.9,1.9-1.3,3c-0.5,1.2-0.7,2.2-0.8,3.2c-0.1,0.8-0.1,1.5,0.1,2.2c0.2,1,0.5,1.9,1,2.6
				c0.4,0.5,0.6,0.8,0.8,1c0.4,0.3,0.9,0.7,1.2,0.9l1,0.5l0.3,0c0.5,0.1,1.2,0.1,1.7,0.1l0.3,0c0.3,0,1,0,1.7-0.1
				c0.7-0.1,1.4-0.3,1.9-0.5c0.7-0.2,1.4-0.5,2.2-0.9c0.9-0.4,1.8-0.9,2.1-1c0,0,0,0,0,0c0,0,0,0,0,0c0.1,0,0.7,0.3,1.5,0.5
				c0.8,0.2,1.8,0.4,2.9,0.6c0.5,0.1,0.9,0.1,1.4,0.2c0.4,0,0.8,0.1,1.3,0.1c0.7,0,1.3-0.1,1.9-0.2c0.8-0.2,1.6-0.7,2.3-1.2
				c0,0,0,0,0,0l0.8,0.7c0.5,0.4,1.2,0.9,1.7,1.2l0.6,0.3c0.9,0.4,1.8,0.5,2.5,0.5c0.7,0,1.5,0,2.1-0.1c0.5-0.1,0.9-0.2,1.4-0.3
				c0.6-0.2,1.2-0.4,1.7-0.7c0.8-0.4,1.6-1,2.5-1.7c0.6-0.6,1.4-1.3,1.8-2.4c0.3-0.7,0.4-1.5,0.5-2c0.1-1.1,0.1-1.9-0.2-2.8
				l-0.1-0.4c0.1,0.1,0.1,0.1,0.1,0.1c0.2,0.3,0.5,0.6,1,0.9l0.6,0.3c0,0,0.1,0,0.1,0c-0.1,0.4-0.2,1-0.3,1.6
				c-0.1,1.1,0,2.2,0.4,3.1c0.2,0.6,0.3,0.8,0.4,0.9c0.1,0.2,0.6,0.9,0.9,1.3c0.3,0.3,0.9,0.8,1.2,1c0.1,0.1,0.8,0.5,1.6,0.8
				c0.8,0.3,1.7,0.4,2.3,0.4c0.3,0,0.7,0,1,0c0.6,0,1.1,0,1.6-0.1c1.1-0.1,2.2-0.5,3.4-1c0.6-0.3,1-0.5,1.4-0.8
				c0.5-0.3,0.9-0.7,1.3-1c0.3,0.6,0.8,1.1,1.3,1.5c0.7,0.5,1.5,0.9,2.3,1.1c0.4,0.1,0.7,0.1,1.1,0.1c0.6,0,1.1-0.1,1.6-0.3
				c0.5-0.2,1-0.4,1.4-0.7c0.4-0.3,0.8-0.7,1.1-1.2c0.4-0.5,0.4-0.6,0.4-0.6l0.1-0.2c0.4-0.8,0.4-1.7,0-2.4
				C285.2,37.9,284.6,37.5,283.9,37.3z"/>
			<path class="st0" d="M222.5,24.8c0-0.7,0-2.1-0.8-3c-0.5-0.5-1.2-0.8-1.9-0.8c-1.2,0-2.2,0.8-2.8,1.4l0,0c-0.5,0.5-1.4,1.6-4,5
				c-0.1,0.1-0.4,0.2-0.7,0.3c0-0.5,0.3-1.4,1.6-3c0.1-0.2,0.2-0.3,0.2-0.3c0.1-0.1,0.1-0.1,0.2-0.2c0.2-0.2,0.4-0.4,0.6-0.7
				c0.3-0.3,0.5-0.6,0.8-0.9c0.8-0.8,1.6-1.7,2.2-2.8c0.4-0.7,0.7-1.4,1-2.1c0.2-0.7,0.4-1.8,0.4-1.9c0.1-0.4,0.1-0.8,0-1.2l0-0.2
				c-0.1-0.9-0.8-1.7-1.7-2c-0.2-0.1-1.7-0.5-2.7-0.3c-0.8,0.2-1.4,0.6-1.8,0.8c-0.9,0.5-1.7,1.1-2.5,1.7c-0.6,0.5-1.2,1-1.7,1.5
				c-0.6,0.6-1.1,1.2-1.6,1.9c-0.3,0.4-0.5,0.8-0.8,1.2c-0.5,0.9-1,1.8-1.3,2.7c-0.3,0.7-0.5,1.4-0.7,2.3c-0.2,0.8-0.5,2-0.5,2
				c0,0.1,0,0.2,0,0.2c0,0,0,0.1-0.1,0.2c-0.1,0.2-0.3,0.4-0.5,0.6l-0.1,0.1c-1.1,1.3-2.2,2.5-3.4,3.7c-0.8,0.7-1.6,1.4-2.4,2.2
				c-0.8,0.7-1.5,1.3-2.2,2c-0.7,0.7-1.4,1.4-2.2,2.2c-1.5,1.5-2.8,3.1-4.1,4.9c-0.6,0.8-1.3,1.8-1.6,2.9c-0.3,1-0.2,2.4-0.2,2.8
				c0.1,1.1,1,2,2.1,2c0.5,0,1-0.2,1.4-0.5L191,49c0.2-0.1,0.4-0.4,0.6-0.5c0,0,1-1,1.7-1.7c1.5-1.6,3.9-4.8,4-4.9
				c0.1-0.1,0.2-0.3,0.3-0.4c0,0,0.4-0.4,0.7-0.8c0.2-0.2,0.4-0.3,0.5-0.5c0.3,0.6,0.7,1.2,1.2,1.6c0.5,0.5,1.3,1.1,1.4,1.2
				c0.3,0.2,0.6,0.4,0.9,0.5c0,0,0.2,0.1,0.4,0.2c0.5,0.2,1,0.3,1.5,0.4c1,0.2,2.2,0.1,3.4-0.1c0.6-0.1,1.4-0.3,2.1-0.6
				c0.5-0.2,0.9-0.5,1.2-0.7c0.6-0.4,1.1-0.9,1.5-1.3c0.6-0.7,1.4-1.8,1.4-1.9c0.1-0.2,0.3-0.4,0.4-0.6l7.7-12.5
				C222.3,26,222.4,25.4,222.5,24.8z M208.6,32.7c-0.7,0-1.5,0-2.4,0c0.1-0.1,0.2-0.2,0.3-0.4c0.3-0.3,0.6-0.6,0.8-0.9c0,0,0,0,0,0
				C207.8,31.9,208.2,32.4,208.6,32.7z"/>
		</g>
		<g>
			<g id="g182_1_" transform="scale(1.26488)">
				<path id="path184_1_" class="st1" d="M110.8,31.9c-0.2-0.1-0.8-0.3-1.1-0.3l-0.2,0c-0.4,0-0.7-0.1-0.7-0.1c0,0,0-0.4,0.1-0.7
					c0,0,0-0.1,0.1-0.5c0.3-1.2,1.2-2.7,1.2-2.7c0.2-0.3,0.4-0.9,0.6-1.2c0,0,0.1-0.3,0.1-0.7c0-0.5-0.1-0.8-0.1-0.8
					c-0.1-0.4-0.3-0.7-0.5-0.7c-0.1,0-0.5,0.1-0.8,0.3c0,0-0.6,0.4-1.1,0.9c-0.5,0.5-1,1.1-1.4,1.7c-0.4,0.6-0.6,1.3-0.8,1.9
					c-0.1,0.4-0.2,0.7-0.2,1.1c0,0.4,0,0.7,0,1.1c0.1,0.5,0.2,0.8,0.2,0.8c0.1,0.4,0.3,0.8,0.4,1c0,0,0,0,0.2,0.1
					c0.2,0.2,0.4,0.3,0.6,0.4c0.3,0.1,0.6,0.2,0.9,0.2c0.4,0.1,0.8,0.1,1.1,0c0.3-0.1,0.6-0.2,0.9-0.4c0.4-0.3,0.7-0.6,0.7-0.6
					C111,32.4,111,32,110.8,31.9"/>
			</g>
			<g id="g186_1_" transform="scale(1.76993)">
				<path id="path188_1_" class="st1" d="M88.6,23c0,0-0.3,0-0.7-0.3c-0.2-0.1-0.2-0.1-0.2-0.1c-0.1-0.2-0.3-0.6-0.3-0.8
					c0,0,0-0.1,0-0.4c0.1-0.3,0.1-0.6,0.2-1c0.1-0.3,0.2-0.7,0.4-1c0.3-0.7,0.7-1.4,1-2c1.1-2,3.3-5.4,3.3-5.4
					c0.1-0.2,0.4-0.6,0.5-0.8c0,0,0.1-0.3,0.3-0.6c0.2-0.4,0.3-0.6,0.3-0.6c0.1-0.3,0.2-0.7,0.1-0.9l0-0.3c0-0.3-0.2-0.5-0.5-0.6
					c0,0,0,0-0.3,0.1c-0.1,0-0.1,0-0.1,0c-0.1,0-0.3,0.2-0.5,0.4c0,0-0.4,0.4-0.7,0.8c-0.4,0.5-0.8,1-1.2,1.6
					c-0.5,0.7-1,1.5-1.4,2.3c-0.3,0.5-0.5,1-0.8,1.5c-0.4,0.8-0.8,1.6-1.2,2.4c-0.4,0.9-0.7,1.8-1,2.7c-0.1,0.3-0.2,0.7-0.3,1
					c-0.1,0.4-0.1,0.7-0.1,1.1c0,0.4,0.1,0.7,0.2,1.1c0.1,0.2,0.3,0.5,0.5,0.6c0.2,0.1,0.4,0.2,0.6,0.3c0.3,0.1,0.7,0.2,1,0.2
					c0.4,0,0.7,0,0.7,0c0.3,0,0.6-0.1,0.7-0.2c0.1-0.1,0.1-0.3,0-0.4C89.2,23.2,88.9,23,88.6,23"/>
			</g>
			<g id="g190_1_" transform="scale(1.59002)">
				<path id="path192_1_" class="st1" d="M90.5,23.1c0.1-0.3,0.1-0.3,0.1-0.3c0.1-0.3,0.3-0.7,0.5-1c0,0,0.6-1.1,1-1.9
					c0.6-1.1,1.3-2.2,1.9-3.3c1-1.7,2.7-4.5,2.7-4.5c0.2-0.3,0.4-0.7,0.5-0.9c0.1-0.2,0.2-0.6,0.3-0.8c0,0,0,0,0-0.2
					c0-0.4,0-0.6,0-0.6C97.4,9.3,97.1,9,96.8,9c0,0,0,0-0.3,0.1c-0.1,0.1-0.1,0.1-0.1,0.1c-0.1,0.1-0.4,0.4-0.6,0.6
					c0,0-0.5,0.6-1,1.1c-0.5,0.6-1,1.3-1.5,1.9c-0.6,0.9-1.2,1.7-1.8,2.7c-0.2,0.4-0.4,0.8-0.4,0.8c-0.1,0.3-0.3,0.7-0.4,1l-1.7,4.1
					c-0.1,0.3-0.3,0.7-0.4,1c0,0-0.2,0.6-0.3,1.2c-0.1,0.4,0,0.9,0,1.3c0,0.3,0,0.3,0,0.3c0.1,0.3,0.3,0.7,0.4,0.9
					c0,0,0.1,0.2,0.4,0.3c0.2,0.1,0.4,0.1,0.5,0.2c0.3,0.1,0.6,0.1,0.9,0.2c0.6,0.1,1.2,0,1.2,0c0.3,0,0.5-0.2,0.5-0.3
					c0-0.2-0.1-0.4-0.2-0.5c-0.1-0.1-0.5-0.3-0.7-0.4c0,0-0.3-0.1-0.7-0.4c-0.2-0.1-0.3-0.2-0.4-0.4c-0.1-0.1-0.1-0.3-0.1-0.4
					c0-0.1,0-0.1,0-0.1c0-0.2,0-0.5,0.1-0.8C90.4,23.5,90.4,23.4,90.5,23.1"/>
			</g>
			<g id="g194_1_" transform="scale(2.1401)">
				<path id="path196_1_" class="st1" d="M78.3,15.5c0,0,0-0.1,0.1-0.2c0-0.1,0.1-0.2,0.2-0.4c0,0,0,0,0.1-0.1
					c0.1-0.2,0.2-0.3,0.4-0.5c0.1-0.1,0.2-0.2,0.3-0.3c0.2-0.2,0.4-0.3,0.6-0.4c0.2-0.1,0.4-0.2,0.6-0.3c0.1,0,0.1,0,0.1,0
					c0.1,0,0.3,0,0.3,0.1c0,0.1-0.1,0.4-0.1,0.6c0,0-0.1,0.2-0.3,0.5c-0.1,0.2-0.4,0.4-0.6,0.5c-0.2,0.1-0.5,0.3-0.7,0.3
					c-0.3,0.1-0.6,0.1-0.6,0.1C78.5,15.6,78.3,15.5,78.3,15.5L78.3,15.5z M86,17.8c0-0.2-0.1-0.4-0.2-0.4c-0.1,0-0.4,0.1-0.6,0.2
					c0,0-0.8,0.3-1.3,0.5c-0.4,0.1-0.9,0.2-1.3,0.3c-0.5,0.1-1,0.2-1.5,0.2c-0.4,0-0.9,0-1.3,0c-0.2,0-0.5,0-0.7-0.1
					c-0.2,0-0.3-0.1-0.5-0.2c-0.1-0.1-0.2-0.1-0.3-0.2c-0.2-0.1-0.3-0.3-0.4-0.4c-0.1-0.1-0.1-0.1-0.1-0.1c-0.1-0.1-0.2-0.3-0.2-0.3
					c0,0,0.2-0.1,0.4-0.2c0,0,1-0.4,1.7-0.8c0.4-0.2,0.8-0.4,1.2-0.6c0.3-0.2,0.6-0.4,0.8-0.6c0.3-0.2,0.5-0.5,0.7-0.8
					c0.1-0.2,0.2-0.5,0.2-0.8c0-0.3-0.1-0.5-0.2-0.8c-0.1-0.2-0.2-0.5-0.4-0.7c-0.1-0.1-0.2-0.2-0.3-0.3c-0.1-0.1-0.3-0.1-0.4-0.1
					c-0.2,0-0.4,0.1-0.5,0.2c-0.1,0-0.2,0.1-0.3,0.1c-0.2,0.1-0.4,0.2-0.6,0.4c-0.2,0.2-0.5,0.3-0.7,0.5c-0.4,0.3-0.8,0.6-1.1,1
					c-0.4,0.4-0.8,0.9-1.1,1.3c-0.2,0.4-0.5,0.7-0.6,1.1c-0.1,0.2-0.1,0.4-0.1,0.7c0,0.3,0.1,0.6,0.2,0.9c0.1,0.2,0.1,0.2,0.1,0.2
					c0.1,0.2,0.3,0.4,0.5,0.6c0,0,0.3,0.3,0.6,0.5c0.2,0.1,0.5,0.2,0.8,0.3c0.4,0.1,0.7,0.2,1.1,0.2c0.6,0.1,1.2,0.1,1.7,0
					c0.5,0,1-0.1,1.5-0.2c0.6-0.1,1.1-0.2,1.7-0.4c0.5-0.2,1-0.4,1-0.4c0.2-0.1,0.4-0.3,0.6-0.3C85.9,18.3,86,18.1,86,17.8L86,17.8"
					/>
			</g>
			<g id="g198_1_" transform="scale(4.16506)">
				<path id="path200_1_" class="st1" d="M68.2,5.6c0-0.1-0.1-0.3-0.2-0.3c0,0,0,0-0.1,0c-0.1,0-0.1,0-0.1,0c-0.1,0-0.2,0.1-0.3,0.1
					c0,0,0,0,0,0.1c0,0.1,0,0.1,0,0.1c0,0.1,0.1,0.2,0.2,0.3c0,0,0,0,0.1,0c0.1,0,0.2,0,0.2,0C68.2,5.8,68.2,5.7,68.2,5.6"/>
			</g>
			<g id="g202_1_" transform="scale(1.41944)">
				<path id="path204_1_" class="st1" d="M99.2,16.9c0,0,0-0.2-0.3-0.5c-0.1-0.2-0.3-0.3-0.5-0.4C98.1,16,98.1,16,98.1,16
					c-0.3,0.1-0.6,0.3-0.7,0.5c0,0,0,0,0,0.2c0,0.3,0,0.4,0,0.4c0.1,0.3,0.5,0.6,0.8,0.6c0,0,0,0,0.4,0c0.2,0,0.2,0,0.2,0
					C99,17.5,99.2,17.2,99.2,16.9"/>
			</g>
			<g id="g206_1_" transform="scale(1.44141)">
				<path id="path208_1_" class="st1" d="M93.3,30.6c-0.5-0.4-1.1-0.6-1.6-0.9c-0.2-0.2-0.5-0.3-0.7-0.6c-0.2-0.2-0.4-0.5-0.6-0.7
					c-0.1-0.3-0.3-0.5-0.3-0.8c-0.1-0.4-0.1-0.7-0.1-0.7c0-0.3,0-0.7,0.1-0.8c0-0.1,0.1-0.5,0.3-0.8l1.4-3.5c0.1-0.3,0.2-0.8,0.2-1
					c0,0,0,0,0-0.2c0-0.2-0.1-0.4-0.2-0.6c-0.1-0.3-0.4-0.5-0.6-0.7c-0.2-0.1-0.4-0.2-0.6-0.3c-0.3-0.1-0.6-0.1-0.9,0
					c-0.5,0.1-1,0.2-1.4,0.4c-0.8,0.4-1.7,1.2-1.7,1.2c-0.2,0.2-0.6,0.4-0.7,0.4c-0.1,0-0.3,0-0.3-0.1c0-0.1-0.2-0.4-0.3-0.7
					l-0.2-0.6c-0.1-0.3-0.3-0.7-0.4-0.9c0,0,0,0-0.1-0.1c-0.2-0.2-0.4-0.3-0.6-0.4c-0.3-0.1-0.5-0.1-0.8-0.1c-0.3,0-0.3,0-0.3,0
					c-0.3,0-0.8,0.1-1.1,0.1l-0.7,0.1c-0.3,0.1-0.6-0.2-0.7-0.5c0,0,0-0.2-0.2-0.6c-0.1-0.3-0.2-0.6-0.4-0.9
					c-0.2-0.2-0.4-0.5-0.6-0.6c-0.4-0.3-0.9-0.5-0.9-0.5C77.9,15,77.5,15,77.4,15c-0.2,0-0.6,0.1-0.9,0.2c0,0-2,0.6-3.3,0.8
					c-0.9,0.2-1.8,0.3-2.6,0.3c-1,0-2.4-0.1-2.4-0.1c-0.3,0-0.8-0.1-1.2-0.2c0,0-1.1-0.4-2-0.4c-0.6,0-1.1,0.1-1.1,0.1
					c-0.3,0-0.5,0.2-0.5,0.4c0.1,0.1,0.2,0.3,0.2,0.4c0,0.1,0.2,0.3,0.4,0.6c0,0,0.1,0.1,0.4,0.4c0.2,0.2,0.2,0.2,0.2,0.2
					c0.2,0.1,0.6,0.4,0.9,0.6c0,0,0.6,0.4,1.3,0.5c0.3,0.1,0.4,0.1,0.4,0.1c0.3,0,0.9,0,1.2,0c0,0,1.1-0.1,1.9-0.1
					c2-0.2,5.3-0.7,5.3-0.7c0.3-0.1,0.9-0.1,1.2-0.1l0.1,0c0.3,0,0.6,0.2,0.5,0.5c0,0,0,0-0.1,0.2c-0.1,0.2-0.2,0.5-0.3,0.7
					c-0.3,0.6-0.6,1.2-1,1.8c-0.3,0.5-0.7,0.9-1,1.3c-0.3,0.4-0.7,0.7-1.1,1.1C72.9,24.2,72,25,71.3,26c-0.4,0.5-0.7,1-1,1.5
					C70.1,28,70,28.6,70,28.6c-0.1,0.3-0.1,0.7,0,0.8c0.1,0.1,0.4,0.2,0.7,0.1c0,0,0.4-0.1,0.9-0.3c0.4-0.2,0.7-0.3,1-0.6
					c0.4-0.3,0.7-0.6,1.1-0.9c0.4-0.4,0.6-0.6,0.6-0.6c0.2-0.2,0.6-0.6,0.8-0.9c0,0,1.3-1.5,2.1-2.5c0.5-0.5,1.1-1.1,1.1-1.1
					c0.2-0.2,0.6-0.6,0.8-0.8c0,0,0,0,0.2-0.2c0.4-0.3,0.8-0.6,1.2-0.9c0.3-0.2,0.7-0.4,1-0.5c0.4-0.2,0.7-0.2,0.7-0.2
					c0.3-0.1,0.6-0.1,0.7-0.1c0,0,0.1,0.3,0.1,0.6c0,0,0,0.1,0,0.4c-0.1,0.4-0.2,0.8-0.4,1.1c-0.2,0.5-0.5,1-0.9,1.5
					c-0.9,1.3-2.3,3.3-2.3,3.3c-0.2,0.3-0.4,0.7-0.6,1c0,0-0.1,0.2-0.1,0.6c0,0.5,0,0.8,0,0.8c0.1,0.3,0.2,0.6,0.3,0.6
					c0.1,0,0.4-0.1,0.7-0.3c0,0,0.3-0.1,0.6-0.4c0.5-0.4,1-0.9,1.4-1.4c1-1.2,1.9-2.5,2.9-3.6c0.7-0.8,1.8-1.8,1.8-1.8
					c0.2-0.2,0.7-0.5,1-0.7c0,0,0.4-0.2,0.8-0.3c0.3-0.1,0.7-0.2,1-0.2c0.2,0,0.2,0,0.2,0c0.2,0,0.4,0.1,0.4,0.1s0,0.2-0.1,0.4
					c-0.1,0.2-0.2,0.6-0.3,0.9c0,0-0.5,1.1-0.8,2c-0.2,0.5-0.4,1.1-0.4,1.7c-0.1,0.7-0.1,1.4,0,2c0,0.4,0.1,0.8,0.2,1.2
					c0.1,0.2,0.1,0.4,0.2,0.5c0.1,0.3,0.3,0.5,0.6,0.7c0.4,0.4,0.9,0.6,1.4,0.8c0.5,0.2,1.1,0.3,1.7,0.4c0.4,0.1,0.8,0.1,1.2,0.1
					c0.3,0,0.4,0,0.4,0c0.3-0.1,0.4-0.4,0.2-0.6C94.1,31.2,93.8,30.9,93.3,30.6"/>
			</g>
			<g id="g210_1_" transform="scale(4.00521)">
				<path id="path212_1_" class="st1" d="M68.7,9.3c0,0-0.5,0.2-0.8,0.4c-0.3,0.1-0.5,0.1-0.8,0.2c-0.1,0-0.2,0-0.3,0
					c0,0-0.1,0-0.1-0.1c0,0-0.1-0.1-0.1-0.1c0-0.1,0-0.1,0-0.1c0-0.1,0-0.2,0-0.4c0,0,0-0.2,0.1-0.4c0-0.1,0.1-0.3,0.1-0.4
					c0-0.1,0.1-0.1,0.1-0.2C66.8,8.1,66.9,8.1,67,8c0.1-0.1,0.3-0.2,0.4-0.2c0.4-0.2,0.9-0.4,0.9-0.4c0.1,0,0.3-0.1,0.3-0.2
					c0,0,0,0,0,0C68.8,7.1,68.8,7,68.8,7c0-0.1,0-0.2-0.1-0.2c-0.1,0-0.3,0-0.4,0.1l-0.6,0.2c-0.1,0-0.2,0-0.2,0c0,0,0,0,0,0
					c0.1-0.2,0.2-0.5,0.4-0.7C68,6.2,68.1,6,68.2,5.9c0.1-0.3,0.3-0.5,0.4-0.8c0.1-0.1,0.1-0.2,0.1-0.2c0.1-0.1,0-0.2,0-0.3
					c0,0-0.1-0.1-0.2-0.1c-0.1,0-0.2-0.1-0.3,0c-0.1,0-0.1,0-0.1,0c-0.1,0.1-0.2,0.2-0.2,0.3l-0.3,0.4c-0.1,0.1-0.2,0.3-0.2,0.4
					l-1,1.8c-0.1,0.1-0.1,0.2-0.1,0.2c0,0-0.1,0.1-0.2,0.1c0,0-0.3,0-0.5,0.1c-0.2,0-0.3,0-0.3,0c-0.1,0-0.2,0.1-0.2,0.1
					s0,0.1,0,0.2c0,0,0.1,0.2,0.2,0.2c0,0,0,0,0.1,0.1c0,0,0,0,0,0c0.1,0,0.2,0,0.3,0c0.1,0,0.2,0,0.2,0.1c0,0.1-0.1,0.2-0.1,0.3
					c0,0-0.1,0.2-0.1,0.5c0,0.2,0,0.4,0.1,0.6c0,0.1,0.1,0.1,0.1,0.1c0.1,0.1,0.1,0.2,0.2,0.2c0,0,0.1,0.1,0.2,0.2
					c0,0,0.1,0.1,0.3,0.1c0.1,0.1,0.3,0.1,0.4,0.1c0.2,0,0.4,0,0.5,0c0.2,0,0.5-0.1,0.7-0.2c0.1,0,0.2-0.1,0.3-0.2
					c0.1-0.1,0.2-0.2,0.3-0.3c0.1-0.1,0.2-0.2,0.2-0.3c0-0.1,0-0.1,0-0.1c0-0.1,0-0.2,0-0.2C68.9,9.3,68.8,9.3,68.7,9.3"/>
			</g>
			<g id="g214_1_" transform="scale(3.67337)">
				<path id="path216_1_" class="st1" d="M70.7,6.3C70.7,6.3,70.7,6.3,70.7,6.3c-0.1-0.1-0.2-0.2-0.3-0.3L70.3,6
					c-0.1-0.1-0.2-0.1-0.3-0.1c0,0-0.2,0.1-0.3,0.1c0,0-0.1,0.1-0.2,0.1c-0.1,0.1-0.2,0.1-0.3,0.2c-0.2,0.1-0.3,0.2-0.4,0.4
					c-0.1,0.1-0.2,0.2-0.2,0.4c-0.1,0.1-0.1,0.3-0.1,0.5c0,0.2,0,0.4,0,0.6c0,0.1,0,0.1,0,0.1c0.1,0.1,0.2,0.3,0.3,0.4l0.4,0.6
					c0.1,0.1,0.2,0.3,0.2,0.3c0,0.1,0,0.2,0,0.4c0,0,0,0-0.1,0.1c-0.1,0.2-0.2,0.3-0.3,0.4c-0.1,0.1-0.2,0.2-0.3,0.3
					c-0.1,0-0.2,0.1-0.3,0.1c-0.2,0-0.3,0.1-0.5,0c-0.1,0-0.3-0.1-0.4-0.1c-0.2-0.1-0.3-0.2-0.5-0.3c-0.2-0.1-0.4-0.3-0.6-0.4
					c-0.1-0.1-0.3-0.2-0.3-0.2c-0.1-0.1-0.2-0.1-0.2,0c0,0.1,0,0.2,0,0.3c0,0.1,0,0.1-0.1,0.1c0,0-0.2,0-0.3,0.1
					c0,0-0.5,0.1-0.9,0.2c-0.2,0-0.3,0-0.5,0c-0.1,0-0.1,0-0.1,0c-0.1-0.1-0.2-0.2-0.3-0.2c0,0,0,0,0-0.1c0-0.1,0-0.1,0-0.2
					c0-0.1,0-0.1,0-0.1c0-0.1,0.1-0.3,0.1-0.4l0.7-1.5c0.1-0.1,0.1-0.2,0-0.3c-0.1,0-0.1-0.1-0.1-0.1c0,0-0.2,0-0.3,0
					c0,0-0.1,0-0.2,0.1c-0.1,0.1-0.2,0.2-0.3,0.3c-0.1,0.2-0.2,0.4-0.3,0.5c-0.2,0.5-0.6,1.2-0.6,1.2c-0.1,0.1-0.2,0.3-0.2,0.4
					c0,0-0.1,0.1-0.2,0.3c-0.1,0.2-0.3,0.3-0.5,0.4c-0.1,0-0.2,0-0.3,0.1c-0.1,0-0.2,0-0.3,0c-0.1,0-0.2-0.1-0.3-0.1
					c-0.1-0.1-0.1-0.1-0.1-0.1c-0.1-0.1-0.1-0.2-0.1-0.2c0,0,0-0.1,0-0.3c0,0,0,0,0-0.2c0.1-0.2,0.2-0.4,0.3-0.7
					c0.2-0.3,0.4-0.6,0.5-0.9C61.8,8.3,61.9,8.2,62,8c0.1-0.2,0.1-0.5,0.1-0.5c0-0.1,0-0.3-0.1-0.3c-0.1,0-0.2,0-0.3,0
					c0,0-0.1,0-0.2,0.1c-0.2,0.2-0.4,0.4-0.6,0.6c-0.2,0.2-0.3,0.4-0.4,0.7c-0.1,0.2-0.2,0.5-0.3,0.7C60.1,9.6,60,9.8,60,10.1
					c0,0.1,0,0.3,0,0.4c0,0.2,0.1,0.3,0.2,0.5c0.1,0.1,0.1,0.2,0.1,0.2c0.1,0.1,0.2,0.2,0.3,0.2c0,0,0,0,0.1,0c0.1,0,0.1,0,0.1,0
					c0.1,0,0.3,0,0.4,0c0,0,0.2,0,0.4,0c0.1,0,0.3-0.1,0.4-0.1c0.2-0.1,0.4-0.1,0.5-0.2c0.3-0.1,0.6-0.3,0.6-0.3
					c0.1-0.1,0.3-0.1,0.4,0c0,0,0.2,0.1,0.4,0.1c0.2,0.1,0.5,0.1,0.7,0.1c0.1,0,0.2,0,0.4,0c0.2,0,0.4,0,0.7,0
					c0.2,0,0.3-0.1,0.4-0.2c0.1-0.1,0.2-0.1,0.2-0.1c0.1-0.1,0.2-0.1,0.3,0L67,11c0.1,0.1,0.3,0.2,0.4,0.3c0,0,0,0,0.1,0
					c0.2,0.1,0.3,0.1,0.5,0.1c0.2,0,0.3,0,0.4,0c0.1,0,0.2,0,0.3-0.1c0.1,0,0.3-0.1,0.4-0.2c0.2-0.1,0.4-0.2,0.5-0.4
					c0.1-0.1,0.3-0.3,0.4-0.5c0.1-0.1,0.1-0.2,0.1-0.4c0-0.2,0-0.4,0-0.5c0-0.1,0-0.1,0-0.1c0-0.1-0.1-0.2-0.2-0.4l-0.4-0.7
					c-0.1-0.1-0.1-0.3-0.1-0.4c0,0,0-0.1,0-0.2c0-0.2,0-0.3,0.1-0.4c0-0.1,0.1-0.1,0.1-0.2c0.1,0,0.1,0,0.1,0c0.1,0,0.2,0,0.2,0
					c0,0,0,0.1,0,0.2l0,0c0,0.1,0.1,0.2,0.2,0.2c0,0,0,0,0.1,0c0.1,0,0.2-0.1,0.2-0.1c0.1-0.1,0.2-0.2,0.3-0.3
					c0.1-0.1,0.1-0.2,0.1-0.2C70.7,6.7,70.7,6.5,70.7,6.3C70.7,6.4,70.7,6.4,70.7,6.3"/>
			</g>
			<g id="g218_1_" transform="scale(4.15972)">
				<path id="path220_1_" class="st1" d="M68.1,9.4c-0.1,0-0.4-0.1-0.5-0.1c-0.1,0-0.1-0.1-0.1-0.2c0,0,0,0,0-0.1
					c0-0.1,0-0.2,0.1-0.2c0.1-0.2,0.2-0.4,0.3-0.6c0.1-0.2,0.2-0.3,0.3-0.5c0.1-0.2,0.1-0.3,0.1-0.3c0-0.1,0-0.2-0.2-0.2l0,0
					c-0.1,0-0.2,0-0.3,0c0,0-0.1,0.1-0.2,0.1c0,0-0.1,0-0.2,0.2c0,0,0,0,0,0c0,0.1-0.1,0.2-0.2,0.3c0,0-0.1,0.2-0.2,0.4
					c-0.1,0.1-0.1,0.3-0.2,0.4c0,0.1-0.1,0.3-0.1,0.5c0,0.1,0,0.2,0.1,0.3c0,0.2,0.1,0.3,0.3,0.4c0.1,0.1,0.2,0.1,0.4,0.2
					c0.1,0,0.3,0,0.4,0c0.1,0,0.1-0.1,0.2-0.1c0.1,0,0.1-0.1,0.2-0.2c0.1-0.1,0.1-0.1,0.1-0.1C68.3,9.6,68.2,9.5,68.1,9.4"/>
			</g>
			<g id="g222_1_" transform="scale(2.88177)">
				<path id="path224_1_" class="st1" d="M73,7.5C73,7.5,73,7.4,73,7.3c0,0,0.1-0.2,0.1-0.3c0.1-0.2,0.3-0.5,0.5-0.7
					c0.2-0.2,0.7-0.5,0.7-0.5c0.1,0,0.1,0,0.2,0c0,0,0.1,0,0,0.1l-1.7,1.9c0,0-0.1,0,0,0L73,7.5z M74.1,10.8c0,0-0.8,1.2-0.9,1.2
					c-0.3,0.1-2.2-0.2-3.3,0.4c-0.1,0.1,0.4-0.7,1.3-1.6c0.3-0.3,0.5-0.6,0.8-0.8c0.1-0.1,0.3-0.2,0.3-0.2c0,0,0.1,0,0.1,0
					c0,0,0,0,0,0C72.5,11.5,74,10.7,74.1,10.8C74.1,10.7,74.1,10.7,74.1,10.8L74.1,10.8z M73.1,12.8c0,0,0,0-0.1,0.1
					c-0.1,0.2-0.3,0.3-0.4,0.5c-0.1,0.1-0.2,0.2-0.3,0.3c-0.2,0.1-0.3,0.2-0.5,0.2c-0.3,0.1-0.6,0.2-0.9,0.2c-0.2,0-0.3,0-0.5-0.1
					c-0.1,0-0.1-0.1-0.2-0.2c-0.1-0.1-0.1-0.2-0.1-0.3c0-0.1,0-0.2,0-0.2c0-0.1,0.1-0.2,0.2-0.2c0.1-0.1,0.3-0.2,0.3-0.2
					c0.1,0,0.2,0,0.2-0.1c0,0,0.9-0.1,1.4-0.1c0.3,0,0.8,0,0.8,0C73.1,12.7,73.1,12.8,73.1,12.8L73.1,12.8z M76.5,8.6
					c0,0,0.1-1.1-0.7-0.3c0,0-0.1,0-1.3,1.7c-0.2,0.2-1.1,0.6-1.3,0.1c-0.5-0.8,0.5-1.9,0.6-2C73.8,8,73.9,7.9,74,7.7
					c0.3-0.4,0.7-0.7,1-1.2c0.1-0.2,0.2-0.4,0.3-0.6c0.1-0.2,0.1-0.6,0.1-0.6c0-0.1,0-0.2,0-0.2l0-0.1c0-0.1-0.1-0.1-0.1-0.1
					c0,0-0.4-0.1-0.6-0.1c-0.1,0-0.3,0.1-0.4,0.2c-0.3,0.2-0.6,0.3-0.8,0.5c-0.2,0.1-0.4,0.3-0.5,0.5c-0.2,0.2-0.3,0.4-0.5,0.6
					c-0.1,0.1-0.2,0.2-0.2,0.4c-0.2,0.3-0.3,0.5-0.4,0.8c-0.1,0.2-0.2,0.5-0.2,0.7c-0.1,0.3-0.2,0.7-0.2,0.7c0,0.1,0,0.1-0.1,0.2
					c0,0,0,0-0.1,0.1c-0.1,0.1-0.2,0.2-0.3,0.3c-0.4,0.5-0.8,0.9-1.2,1.3c-0.5,0.5-1.1,0.9-1.6,1.4c-0.3,0.2-0.5,0.5-0.7,0.7
					c-0.5,0.5-0.9,1-1.4,1.6c-0.2,0.2-0.4,0.5-0.4,0.8c-0.1,0.3,0,0.7,0,0.7c0,0.1,0,0.1,0.1,0l0.1-0.1c0,0,0.1-0.1,0.2-0.1
					c0,0,0.4-0.3,0.6-0.6c0.5-0.5,1.4-1.7,1.4-1.7c0,0,0.1-0.1,0.1-0.2c0,0,0.2-0.2,0.3-0.3c0.2-0.2,0.5-0.4,0.8-0.5
					c0.1,0,0.1-0.1,0.1-0.1c0.1,0,0.1,0,0.1,0.1c0,0,0.1,0.2,0.2,0.4c0.1,0.2,0.2,0.4,0.4,0.6c0.1,0.2,0.4,0.4,0.4,0.4
					c0,0,0.1,0.1,0.2,0.1c0,0,0,0,0.1,0c0.1,0,0.3,0.1,0.4,0.1c0.3,0,0.6,0,0.9,0c0.2,0,0.4-0.1,0.5-0.2c0.1-0.1,0.2-0.1,0.3-0.2
					c0.2-0.1,0.3-0.2,0.4-0.4c0.2-0.2,0.4-0.6,0.4-0.6c0,0,0.1-0.1,0.1-0.2l2.7-4.4C76.5,8.7,76.5,8.7,76.5,8.6"/>
			</g>
		</g>
	</g>
	<g>
		<path class="st0" d="M26.4,14.6c-0.4-2.5-2.6-1-3.3,0.1c-0.6,1-0.4,2-0.4,3c-0.1,2.2,0,4.4,0.4,6.6c1,5.1,1.8,10.5,1.9,15.7
			c0-0.1-0.1,4.9-1.5,2.2c-0.5-0.9-0.7-2.1-1.1-3c-1-2.8-1.4-6-2.1-8.9c-0.6-2.7-0.9-5.4-1.4-8.1c-0.3-1.6-0.2-5.6-1.5-6.8
			c-1.4-1.2-3.1,2.6-3.3,3.3c-0.4,1.3,0,2.9,0.2,4.3c0.5,3.2,0.9,6.5,1.4,9.7c0.3,2.5,0.8,5.1,1.1,7.7c0.1,0.9,0.6,3.8-0.1,4.4
			c-0.2,0.2-0.6,0.3-0.9,0.3c-1.2,0.1-1.4-1.2-1.6-2.2c-1.4-5.5-2.4-10.7-3.1-16.3c-0.3-2.6-0.2-7.5-2.4-9.3
			c-0.3-0.2-0.7,0.1-0.9,0.2c-1.8,1.4-1.7,3.6-1.3,5.6c0.4,2.4,0.1,5.1,0.2,7.5c0.1,2.7,0.6,5.5,1,8.2c0.4,2.5,0.8,5,1.3,7.5
			c0.4,1.9,0.9,4.8,2,6.4c0.7,1.1,1.8,1.8,3.2,1.9c0.7,0.1,1.5-0.3,2.1-0.2c0.7,0.1,1.3,1,1.7,1.6c2.2,2.8,2.7,6.5,3.2,9.9
			c0.7,5,2,9.9,2.8,14.9c1.7,10,2.7,20,4.3,30c0.3,1.7,0.6,5.6,2.9,6.1c2,0.5,4-0.6,4.9-2.4c1-2.2,0.2-4.8-0.2-7
			c-1-5.7-2.2-11.5-3.2-17.2c-0.9-4.8-2-9.6-2.8-14.4c-0.6-3.5-1.6-6.6-2.6-9.9c-0.6-2-1-4.3-1.6-6.2C24.9,58,24.7,56,24.3,54
			c-0.1-0.6-0.5-1.3-0.3-1.9c0.3-1,1.6-1,2.4-1.4c0.8-0.4,1.6-0.9,2.2-1.5c1.4-1.2,2.1-2.9,2.2-4.8c0.3-4.6-0.7-9.7-1.5-14.2
			C28.5,25.1,27.3,19.9,26.4,14.6z"/>
		<path class="st1" d="M26.4,14.6c-0.4-2.5-2.6-1-3.3,0.1c-0.6,1-0.4,2-0.4,3c-0.1,2.2,0,4.4,0.4,6.6c1,5.1,1.8,10.5,1.9,15.7
			c0-0.1-0.1,4.9-1.5,2.2c-0.5-0.9-0.7-2.1-1.1-3c-1-2.8-1.4-6-2.1-8.9c-0.6-2.7-0.9-5.4-1.4-8.1c-0.3-1.6-0.2-5.6-1.5-6.8
			c-1.4-1.2-3.1,2.6-3.3,3.3c-0.4,1.3,0,2.9,0.2,4.3c0.5,3.2,0.9,6.5,1.4,9.7c0.3,2.5,0.8,5.1,1.1,7.7c0.1,0.9,0.6,3.8-0.1,4.4
			c-0.2,0.2-0.6,0.3-0.9,0.3c-1.2,0.1-1.4-1.2-1.6-2.2c-1.4-5.5-2.4-10.7-3.1-16.3c-0.3-2.6-0.2-7.5-2.4-9.3
			c-0.3-0.2-0.7,0.1-0.9,0.2c-1.8,1.4-1.7,3.6-1.3,5.6c0.4,2.4,0.1,5.1,0.2,7.5c0.1,2.7,0.6,5.5,1,8.2c0.4,2.5,0.8,5,1.3,7.5
			c0.4,1.9,0.9,4.8,2,6.4c0.7,1.1,1.8,1.8,3.2,1.9c0.7,0.1,1.5-0.3,2.1-0.2c0.7,0.1,1.3,1,1.7,1.6c2.2,2.8,2.7,6.5,3.2,9.9
			c0.7,5,2,9.9,2.8,14.9c1.7,10,2.7,20,4.3,30c0.3,1.7,0.6,5.6,2.9,6.1c2,0.5,4-0.6,4.9-2.4c1-2.2,0.2-4.8-0.2-7
			c-1-5.7-2.2-11.5-3.2-17.2c-0.9-4.8-2-9.6-2.8-14.4c-0.6-3.5-1.6-6.6-2.6-9.9c-0.6-2-1-4.3-1.6-6.2C24.9,58,24.7,56,24.3,54
			c-0.1-0.6-0.5-1.3-0.3-1.9c0.3-1,1.6-1,2.4-1.4c0.8-0.4,1.6-0.9,2.2-1.5c1.4-1.2,2.1-2.9,2.2-4.8c0.3-4.6-0.7-9.7-1.5-14.2
			C28.5,25.1,27.3,19.9,26.4,14.6z M29,42.2c0.1,1.5,0.3,2.7,0,4.3c-0.4,2.6-3.2,3.2-5.1,3.9c-0.6,0.2-1.2,0.8-1.5,1.3
			c-0.4,0.8-0.2,1.3,0,2.1c0.6,2.5,0.8,5.1,1.5,7.6c1.3,4.6,2.4,9.4,3.8,14c1.4,5,1.7,10.2,3,15.2c1.2,4.2,1.9,8.7,2.6,13.1
			c0.5,3.3,2.4,8.2,0.7,10.2c-0.9,1-3,1.1-3.3-0.9c-0.2-1.1-0.6-2.3-0.7-3.4c-0.7-4.5-1.2-9.2-1.9-13.7C26.7,88,26,80,24.3,72.2
			c-0.8-3.7-1-7.5-2-11.2c-0.5-1.8-1.1-3.7-2.1-5.3c-0.6-0.9-1.2-1.8-2-2.5c-1.3-1.1-1.8,0-3.2,0c-2.9,0-3.2-3.9-3.8-5.9
			c-1-3.1-1.4-6.3-1.9-9.6c-0.6-3.9-1-7.7-1.1-11.7c0-0.8-0.9-6-0.3-6.3c0.6-0.2,1.2,3.3,1.3,4.9c0.3,2.3,0.6,4.5,0.8,6.8
			c0.3,4.8,1.7,9.6,2.8,14.2c0.4,1.7,2.1,3.8,3.9,2.1c2.3-2.1,2-5.3,1.8-8.2c-0.3-4.9-1.3-10-2.1-14.9c-0.2-1.5-0.5-3.1-0.7-4.6
			c-0.1-0.6,0.1-3.9,0.7-1.6c0.8,3,1.1,6.3,1.6,9.4c0.8,5,1.7,10.4,3.6,15.1c0.9,2.1,2.3,3.3,4.1,1.1c1.8-2.2,1-6.4,0.8-8.8
			c-0.4-5.2-1.9-10.3-2.2-15.4c0-0.6,0.1-5.8,0.5-3c0.4,2.3,0.6,4.7,1,7C27.1,29.9,28.6,35.9,29,42.2z"/>
	</g>
	<g>
		<g>
			<path class="st0" d="M370.9,26.3c0.2-2.8,0.1-6.9-2.1-9c-2.8-2.7-8.5-4.5-12.2-3c-0.1,0-0.1,0.1-0.2,0.1c0,0,0,0-0.1,0
				c-2.8,1.6-4.3,2.9-5.9,5.7c-1.7,3.1-3.5,6.9-4.1,10.4c-0.5,3.1-0.6,6.3-0.3,9.5c0.3,3.3,1,6.5,3.4,8.9c1.4,1.4,2.7,3.1,2.5,5.2
				c-0.4,4.7-1.5,9.2-1.8,13.9c-0.1,2.2-0.1,4.3-0.3,6.5c-0.3,2.6-1.1,5.2-1.6,7.8c-0.8,4.4-2.2,8.7-3.2,13
				c-0.5,2.3-1.1,4.5-1.3,6.9c-0.3,2.6,0,5-0.3,7.6c-0.3,2.7,1.1,3.6,3.6,4c2.1,0.3,5.2,0.9,7.1-0.2c2-1.1,1.5-6.2,1.7-8.1
				c0.5-5-0.1-10-0.6-14.9c-1.1-11,0.5-21.6,1.8-32.6c0.2-1.4,0.9-6.1,2.3-6.6c1.2-0.4,2.4-0.9,3.4-1.8c1-1,1.9-2.2,2.7-3.2
				c2.1-2.7,3.7-5.7,4.4-9.1C370.7,33.8,370.6,30,370.9,26.3z"/>
		</g>
		<g>
			<path class="st1" d="M366.2,22c-0.6-2.7-2.9-2.9-5.2-3.2c0,0-0.1,0-0.1,0c0,0,0,0,0,0c-6.8-0.3-8.9,6.8-10.1,12.1
				c-0.9,4.1-1.4,8.5-0.2,12.6c0.8,2.5,3.3,5.5,6.2,4.8c4.6-1.1,6.4-6.9,7.5-10.8c0.9-3.1,1.5-6.4,1.9-9.6
				C366.6,25.8,366.7,23.9,366.2,22z M364,32.3c-0.8,4.8-2,9.5-5,13.4c-1.5,2-4,0.5-5.2-0.8c-1.9-2.2-2.1-5.5-2.1-8.3
				c0-4.7,2-15.9,7.5-16.8c3.4,0.4,5,1.3,5.5,4.9C365,27.3,364.5,29.9,364,32.3z"/>
			<path class="st1" d="M370.9,26.3c0.2-2.8,0.1-6.9-2.1-9c-2.8-2.7-8.5-4.5-12.2-3c-0.1,0-0.1,0.1-0.2,0.1c0,0,0,0-0.1,0
				c-2.8,1.6-4.3,2.9-5.9,5.7c-1.7,3.1-3.5,6.9-4.1,10.4c-0.5,3.1-0.6,6.3-0.3,9.5c0.3,3.3,1,6.5,3.4,8.9c1.4,1.4,2.7,3.1,2.5,5.2
				c-0.4,4.7-1.5,9.2-1.8,13.9c-0.1,2.2-0.1,4.3-0.3,6.5c-0.3,2.6-1.1,5.2-1.6,7.8c-0.8,4.4-2.2,8.7-3.2,13
				c-0.5,2.3-1.1,4.5-1.3,6.9c-0.3,2.6,0,5-0.3,7.6c-0.3,2.7,1.1,3.6,3.6,4c2.1,0.3,5.2,0.9,7.1-0.2c2-1.1,1.5-6.2,1.7-8.1
				c0.5-5-0.1-10-0.6-14.9c-1.1-11,0.5-21.6,1.8-32.6c0.2-1.4,0.9-6.1,2.3-6.6c1.2-0.4,2.4-0.9,3.4-1.8c1-1,1.9-2.2,2.7-3.2
				c2.1-2.7,3.7-5.7,4.4-9.1C370.7,33.8,370.6,30,370.9,26.3z M363.2,47c-0.8,1-1.6,2.2-2.9,2.7c-0.8,0.3-1.9,0.5-2.6,1
				c-1.1,0.7-1.3,2.4-1.5,3.5c-0.3,2.3-1.1,4.4-1.4,6.8l-0.9,7.4c-0.6,5.3-1.3,10.6-1.3,15.9c0,4.8,1,9.7,1.4,14.5
				c0.2,2.8,0.1,5.7-0.2,8.5c-0.1,1.1-0.3,2.2-0.4,3.3c-0.2,1.6,0,2.2-1.8,2.1c-1.6-0.1-3.2-0.1-4.8-0.5c-2.2-0.6-1.3-3.8-1.3-5.5
				c-0.1-5.5,1.1-10.9,2.6-16.2c1.2-4.2,2.5-8.4,2.9-12.7c0.5-5.6,0.9-9.6,1.4-14.3c0.3-2.4,0.5-4.9,0.9-7.3
				c0.3-1.8,0.7-3.1,0.2-4.9c-0.3-1.2-1.5-2.3-2.3-3.1c-2.5-2.4-2.7-4.8-3.4-8c-0.6-3-0.4-6.2,0.2-9.3c0.7-3.4,2.2-6.5,3.7-9.6
				c1.1-2.4,3.2-5,6-5.6c2.6-0.6,5.8,0.9,8,2.1c4.9,2.7,2.9,10.8,2.5,15.2C368,38.5,366.9,42.6,363.2,47z"/>
		</g>
	</g>
</g>
<g>
</g>
<g>
</g>
<g>
</g>
<g>
</g>
<g>
</g>
<g>
</g>
</svg>
