<?xml version="1.0" encoding="UTF-8"?>
<svg id="Ebene_1" xmlns="http://www.w3.org/2000/svg" version="1.1" viewBox="0 0 860 310">
  <!-- Generator: Adobe Illustrator 29.4.0, SVG Export Plug-In . SVG Version: 2.1.0 Build 152)  -->
  <defs>
    <style>
      .st0 {
        fill: #1d2231;
      }
    </style>
  </defs>
  <g id="Layout">
    <g>
      <path class="st0" d="M350.8,48.2h62.8v7.5h-55.4v16.8h45v7.5h-45v16.8h55.4v7.5h-62.8v-56Z"/>
      <path class="st0" d="M481,48.2h7.5v56h-9l-46.4-46.9v46.9h-7.5v-56h9l46.4,46.9v-46.9Z"/>
      <path class="st0" d="M563.2,48.2v7.5h-27.7v48.5h-7.5v-48.5h-27.7v-7.5h62.8Z"/>
      <path class="st0" d="M627.1,91.6l12.5,12.6h-10.5l-12.2-12.3h-34.2v12.3h-7.5v-56h49.2c7.5,0,13.6,6.1,13.6,13.6v16.4c0,6.6-4.7,12.1-11,13.4h0ZM624.4,84.4c3.4,0,6.2-2.8,6.2-6.2v-16.4c0-3.4-2.8-6.2-6.2-6.2h-41.7v28.7h41.7Z"/>
      <path class="st0" d="M689.6,48.2l29.7,56h-8.4l-6.5-12.3h-37.8l-6.5,12.3h-8.4l29.7-56h8.4ZM700.4,84.4l-15-28.2-15,28.2h29.9Z"/>
      <path class="st0" d="M738.8,96.7h55.4v7.5h-62.8v-56h7.5v48.5Z"/>
    </g>
    <g>
      <path class="st0" d="M250.3,139.2h62.8v7.5h-55.4v16.8h45v7.5h-45v16.8h55.4v7.5h-62.8v-56Z"/>
      <path class="st0" d="M386,152.8v3.7h-7.5v-3.7c0-3.4-2.8-6.2-6.2-6.2h-35.6c-3.4,0-6.2,2.8-6.2,6.2v4.5c0,3.4,2.8,6.2,6.2,6.2h35.6c7.5,0,13.6,6.1,13.6,13.6v4.5c0,7.5-6.1,13.6-13.6,13.6h-35.6c-7.5,0-13.6-6.1-13.6-13.6v-3.7h7.5v3.7c0,3.4,2.8,6.2,6.2,6.2h35.6c3.4,0,6.2-2.8,6.2-6.2v-4.5c0-3.4-2.8-6.2-6.2-6.2h-35.6c-7.5,0-13.6-6.1-13.6-13.6v-4.5c0-7.5,6.1-13.6,13.6-13.6h35.6c7.5,0,13.6,6.1,13.6,13.6Z"/>
      <path class="st0" d="M458.8,139.2v7.5h-27.7v48.5h-7.5v-48.5h-27.7v-7.5h62.8Z"/>
      <path class="st0" d="M526.1,139.2h7.5v56h-7.5v-24.3h-47.9v24.3h-7.5v-56h7.5v24.3h47.9v-24.3Z"/>
      <path class="st0" d="M545.5,139.2h62.8v7.5h-55.4v16.8h45v7.5h-45v16.8h55.4v7.5h-62.8v-56Z"/>
      <path class="st0" d="M683.2,139.2v7.5h-27.7v48.5h-7.5v-48.5h-27.7v-7.5h62.8Z"/>
      <path class="st0" d="M695.1,195.2v-56h7.5v56h-7.5Z"/>
      <path class="st0" d="M777.4,152.8v3.7h-7.5v-3.7c0-3.4-2.8-6.2-6.2-6.2h-35.6c-3.4,0-6.2,2.8-6.2,6.2v28.7c0,3.4,2.8,6.2,6.2,6.2h35.6c3.4,0,6.2-2.8,6.2-6.2v-3.7h7.5v3.7c0,7.5-6.1,13.6-13.6,13.6h-35.6c-7.5,0-13.6-6.1-13.6-13.6v-28.7c0-7.5,6.1-13.6,13.6-13.6h35.6c7.5,0,13.6,6.1,13.6,13.6Z"/>
      <path class="st0" d="M851.4,152.8v3.7h-7.5v-3.7c0-3.4-2.8-6.2-6.2-6.2h-35.6c-3.4,0-6.2,2.8-6.2,6.2v4.5c0,3.4,2.8,6.2,6.2,6.2h35.6c7.5,0,13.6,6.1,13.6,13.6v4.5c0,7.5-6.1,13.6-13.6,13.6h-35.6c-7.5,0-13.6-6.1-13.6-13.6v-3.7h7.5v3.7c0,3.4,2.8,6.2,6.2,6.2h35.6c3.4,0,6.2-2.8,6.2-6.2v-4.5c0-3.4-2.8-6.2-6.2-6.2h-35.6c-7.5,0-13.6-6.1-13.6-13.6v-4.5c0-7.5,6.1-13.6,13.6-13.6h35.6c7.5,0,13.6,6.1,13.6,13.6Z"/>
    </g>
    <path class="st0" d="M182.1,86.2l57.8,109h-16.4l-12.8-24.1h-73.6l-12.8,24.1h-16.4l57.8-109h16.4ZM203,156.6l-29.1-54.9-29.1,54.9h58.2Z"/>
    <path class="st0" d="M299.2,30.1c-18.2-15.4-41.8-23.9-66.4-23.9h-116.4c-27.3,0-55.6,1.5-76.1,19.5-21.6,18.9-31.7,53.2-31.7,107.7v33.4c0,54.5,10.1,88.7,31.7,107.7,20.5,18,48.8,19.5,76.1,19.5h116.4c24.6,0,48.3-8.5,66.5-24,17.4-14.7,27.8-33.9,29.4-54.3h-14.1c-1.7,15.7-10.2,31.2-23.6,42.9-12.7,11-28.5,18.1-45.7,20.5h-.3s-118.8.2-118.8.2c-36.5,0-78.9-37.7-78.9-86.4v-54.1c0-1.9,0-3.9,0-5.9,0-30.4-.2-64.8,20-85.1,11.5-11.5,28-17.1,50.5-17.1h113.1c19.7,1.1,32.3,3.5,42.2,7.9,29.1,13,36.2,35,37.9,45.8h17.7c-1.7-20.3-12.1-39.4-29.5-54.1Z"/>
    <path class="st0" d="M553.4,235.8c.8,7.4,1.2,14.8,1.5,22.2s.2,7.4.3,11.1v5.5s0,2.8,0,2.8v1.4s0,.8,0,.8v.3s0,.1,0,.1h0c0,.2,0,.3,0,.4.8-.5-1.6,1.9-2.5,1-.5-.1-1-1.3-.9-1.1,0,0,0-.3,0-.3,0-.3,0-.4,0-.6,0-2.2.3-4.1.9-6,.6-1.9,1.5-3.8,2.9-5.5,1.3-1.6,3.2-2.9,5.2-3.5,2-.6,4-.8,6.2-.4,1.1.2,2.1.6,3.1,1.4.9.7,1.6,1.8,1.8,3,.4,2.3-.6,4.4-1.8,5.9-1.2,1.6-2.8,2.8-4.5,3.6-1.7.9-3.4,1.5-5.2,2,3.4-1.5,6.5-3.6,8.4-6.5.9-1.4,1.4-3.1,1-4.5-.4-1.4-1.7-2.1-3.2-2.2-1.5-.2-3.3.1-4.8.7-1.5.6-2.7,1.5-3.7,2.8-1,1.2-1.6,2.8-2,4.4-.4,1.6-.7,3.4-.6,4.9,0,0,0,.2,0,0,0,0,0-.1,0-.2.1.2-.4-.9-.9-1-1-1-3.4,1.5-2.5.9,0,0,0,.2,0,.3h0c0,0,0,.1,0,.1,0,0,0,0,0,0v-2s0-2.8,0-2.8v-5.5c.1-3.7.2-7.4.3-11.1.3-7.4.7-14.8,1.6-22.2Z"/>
    <path class="st0" d="M569.8,271.2l3-2.3.4-.3v.6c-.1,1.9,0,4,.8,5.6.4.8,1,1.5,1.7,1.8.7.3,1.6.4,2.4.2,1.7-.4,3.3-1.4,4.8-2.6,1.5-1.2,2.8-2.6,4-4l2.3-2.7v3.6c0,4.4,0,8.7-.2,13.1s-.3,8.8-1.1,13.2c-.2,1.1-.4,2.3-.8,3.5-.2.6-.4,1.2-.8,1.8l-.3.5c-.1.2-.3.3-.4.5-.2.3-.7.6-1.2.9-1,.5-2.3.4-3.1,0h-.3c0-.1-.2-.2-.2-.2l-.4-.2c-.3-.1-.5-.3-.8-.4-1-.6-2-1.2-2.9-1.9-1.8-1.3-3.6-2.8-5.2-4.5-.4-.4-.8-.9-1.2-1.4s-.8-1.1-1-1.8c-.2-.4-.3-.8-.3-1.4,0-.3,0-.6,0-.9,0-.3.2-.6.4-.9.8-1.1,1.8-1.4,2.4-1.6l1-.2h.5c0,0,.4-.1.4-.1h1.7c1.1-.2,2.2-.2,3.3-.3,2.2,0,4.4,0,6.6,0,4.4,0,8.7.1,13.1.2,8.7.3,17.4.7,26.1,1.5-8.7.5-17.4.7-26.1,1-4.3.1-8.7.3-13,.4-2.2,0-4.3.2-6.5.3-1.1,0-2.2.1-3.2.2l-1.5.2h-.4s-.3.1-.3.1h-.6c-.4.2-.5.4-.3.2,0-.1,0-.2,0-.3,0,0,0,0,0,.2,0,.3.3.6.6,1,.3.4.6.7.9,1.1,1.4,1.4,3,2.8,4.7,4,.8.6,1.7,1.2,2.6,1.7l.6.4.3.2h.2c0,0,0,0,0,0,0,0,0,0,.1,0,0,0,0,0,0,0,0,0,0,0,0,0,0,0,.2-.1.4-.5.2-.3.4-.7.5-1.1.3-.9.5-1.9.7-2.9.4-2,.6-4.2.9-6.3.2-2.1.4-4.3.5-6.5l.8-13,2.3.9c-1.5,1.5-3,2.9-4.7,4.1-1.7,1.2-3.6,2.3-5.8,2.6-1.1.1-2.4,0-3.4-.7-1-.6-1.7-1.6-2.1-2.6-.7-2.1-.6-4.1-.3-6.1l.4.2-3.3,1.9Z"/>
    <path class="st0" d="M618.7,234.7l.3,10.8.2,10.8.4,21.6v1.9s-1.5-1.2-1.5-1.2c-5-3.9-9.8-7.9-14.5-12-4.7-4.1-9.4-8.4-13.8-12.9-2.2-2.3-4.4-4.6-6.4-7.1-2-2.5-4-5-5.5-8-.8-1.5-1.5-3.1-1.7-5-.2-1.8,0-3.8,1-5.5.9-1.7,2.3-3,3.8-4,1.5-1,3.1-1.6,4.6-2.2,3.2-1,6.4-1.6,9.6-1.9s6.4-.5,9.5-.5c6.3,0,12.7.2,19,.7,12.6.8,25.4,2.6,37.3,7.6,3,1.2,5.9,2.8,8.6,4.6,2.7,1.9,5.3,4.1,7.2,7,1,1.4,1.7,3,2.2,4.7,0,.4.2.9.3,1.3,0,.4.1.9.2,1.3,0,.5,0,1,0,1.5,0,.5-.2,1-.3,1.4-.5,1.8-1.5,3.4-2.5,4.7-1.1,1.3-2.2,2.5-3.4,3.6-2.4,2.2-5.1,4-7.8,5.8-2.7,1.7-5.5,3.3-8.3,4.8-5.6,2.9-11.4,5.5-17.2,7.9-5.8,2.4-11.8,4.5-17.8,6.4-6,1.9-12.2,3.4-18.4,4.4-6.2,1-12.5,1.8-18.7,2.3-6.3.5-12.5.8-18.8.9,12.5-.8,25-2.2,37.2-4.8,12.2-2.5,24-6.8,35.5-11.7,5.7-2.5,11.4-5.1,16.8-8.1,5.4-3,10.8-6.2,15.2-10.3,1.1-1,2.1-2.1,3-3.2.8-1.1,1.5-2.4,1.8-3.6l.2-.9c0-.3,0-.6,0-.8l-.2-1c0-.3-.2-.7-.2-1-.4-1.3-1-2.6-1.8-3.7-1.6-2.4-3.8-4.3-6.2-6-2.5-1.7-5.2-3.1-8-4.2-5.6-2.4-11.6-3.9-17.7-5.1-6.1-1.2-12.2-1.8-18.5-2.2-6.2-.5-12.5-.8-18.7-.8-3.1,0-6.2.1-9.2.4-3,.3-6.1.8-8.9,1.6-2.8.9-5.4,2.3-6.6,4.4-.6,1.1-.8,2.3-.6,3.6,0,.3,0,.6.2.9l.3,1c.3.6.5,1.3.9,2,1.3,2.6,3.1,5.1,5.1,7.5,1.9,2.4,4,4.7,6.1,7,8.6,9,17.9,17.5,27.4,25.5l-1.5.7.4-21.6.2-10.8.3-10.8Z"/>
    <path class="st0" d="M688.9,276.6c-.3.4-.6.8-.9,1.1-.3.4-.6.7-1.2,1.1-.3.2-.8.3-1.3.2s-.9-.4-1.2-.7c-.3-.3-.5-.7-.6-1.1,0-.4-.2-.7-.2-1,0-.6,0-.9-.1-1.2s-.1-.7-.2-1c-.2-.7-.5-1.3-.9-1.9-.8-1.2-1.8-2-2.6-2-.5,0-1.3.4-2.1.8-.9.4-1.7.8-2.7,1,.4-.9,1-1.7,1.5-2.5.5-.7,1.2-1.6,2.5-2.2.6-.3,1.4-.4,2.1-.3.7,0,1.3.3,1.9.6s1,.7,1.5,1.1c.4.4.8.9,1.1,1.3.6,1,1,2,1.2,3.2,0,.6.1,1.1,0,1.7,0,.6-.2,1.2-.2,1.5,0,.2,0,.3,0,.4,0,0,0,.1,0,.2,0,0,0,0-.1.1s0,.1,0,.1c.2,0,.8-.1,1.2-.2.5-.1.9-.2,1.4-.3Z"/>
    <path class="st0" d="M698.8,275.9c.4,0,.7-.2.8-.5.1-.3,0-.7-.4-.8,0,0,0,0,0,0l-.8,2.5c.5-.4.8-1.1.8-1.9.7-.2,1.6-.2,2.5.2h.2c0,.1-1.1,2.5-1.1,2.5,0,0,0,0,0,0-.8,0-1.3-.3-1.7-.7-.3-.4-.4-.9-.3-1.3Z"/>
    <path class="st0" d="M726.9,233.2c0,7.5,0,14.9,0,22.4v22.4s0,1.8,0,1.8l-1.5-1.1c-5.2-4.1-10.3-8.3-15.3-12.6-5-4.4-9.9-8.9-14.5-13.6-2.3-2.4-4.6-4.9-6.7-7.5-1-1.3-2.1-2.7-3-4.1-1-1.4-1.8-2.9-2.5-4.6l-.5-1.3-.3-1.4c0-.5,0-.9-.1-1.4,0-.5,0-1,0-1.4.2-1.9,1-3.9,2.4-5.4,1.3-1.4,3-2.4,4.7-3.1s3.4-1.2,5.1-1.5c3.4-.7,6.8-.9,10.1-1.1,3.4-.1,6.7,0,10,0,6.6.1,13.3.5,19.9,1.2,6.6.7,13.2,1.6,19.8,3.1,6.5,1.4,13,3.3,19.2,6.3,3.1,1.5,6.1,3.4,8.6,6l.9,1c.3.4.5.8.8,1.1l.4.6c.1.2.2.4.3.6l.7,1.2c.3.9.7,1.8.8,2.7,0,.5.2.9.2,1.4,0,.5,0,.9,0,1.4,0,1.9-.5,3.8-1.2,5.5-.7,1.7-1.7,3.2-2.8,4.6-2.2,2.8-4.8,5-7.5,7-5.5,4-11.4,7.1-17.5,9.9-6.1,2.7-12.3,5.1-18.6,7.2-6.3,2.1-12.7,4-19.1,5.6-6.4,1.7-12.9,3.2-19.4,4.5-6.5,1.3-13,2.4-19.6,3.2-6.5.9-13.2,1.5-19.8,1.7,13.2-1.2,26.2-3.6,39-6.5,12.8-3,25.5-6.5,37.9-11,6.2-2.2,12.3-4.7,18.2-7.5,5.9-2.8,11.7-5.9,16.8-9.8,2.5-1.9,4.9-4.1,6.8-6.5,1.9-2.4,3.2-5.2,3.2-8,0-.4,0-.7,0-1,0-.4-.1-.7-.2-1,0-.7-.4-1.3-.6-2l-.5-.9c0-.2-.2-.3-.2-.5l-.3-.4-.6-.9-.8-.8c-2-2.2-4.8-3.8-7.6-5.2-5.7-2.8-12-4.6-18.4-5.9-6.4-1.4-12.8-2.4-19.4-3.1-6.5-.7-13-1.1-19.6-1.3-6.5-.2-13.1-.4-19.4.8-3.1.6-6.1,1.6-8,3.6-.9,1-1.4,2.2-1.6,3.5,0,.3,0,.7,0,1v1.1c0,0,.3,1,.3,1l.3,1c1.1,2.8,2.9,5.5,4.9,8.1,2,2.6,4.1,5,6.3,7.4,4.5,4.8,9.2,9.4,14.1,13.8s9.9,8.8,14.9,12.9l-1.5.7.8-22.4c.3-7.5.6-14.9.9-22.4Z"/>
    <path class="st0" d="M788.8,273.2c1.6-.9,3.3-1.8,4.3-3.1.5-.6.8-1.2.8-1.8,0-.1,0-.3,0-.4,0-.1,0-.2-.1-.3,0,0-.2-.1-.3-.2-.4-.1-1.1,0-1.9.1-.7.2-1.5.5-2.2.8-1.4.7-2.8,1.6-3.6,2.7-.2.3-.3.5-.4.7,0,.1,0,.2,0,.3,0,0,0,.3,0,.5,0,.7,0,1.3.3,1.8.4.9,1.7,1.6,3.3,1.8,1.6.2,3.4.2,5.2,0,1.8-.1,3.6-.4,5.5-.6-1.6,1-3.3,1.8-5.1,2.4-1.8.6-3.7,1.1-5.8,1.1-.5,0-1.1,0-1.6-.1-.5-.1-1.1-.2-1.7-.5-1.1-.4-2.2-1.3-2.9-2.4-.7-1.1-.9-2.4-.9-3.6,0-.3,0-.5,0-.9,0-.4.1-.7.2-1,.2-.6.5-1.2.9-1.7,1.5-1.9,3.3-3,5.2-3.8,1-.4,2-.7,3.1-.8,1.1-.1,2.2-.2,3.6.5.7.3,1.3,1,1.6,1.7.1.4.2.8.2,1.1,0,.3,0,.7,0,1-.3,1.3-1.2,2.3-2,2.9-1.8,1.1-3.6,1.6-5.5,1.7Z"/>
    <path class="st0" d="M808.3,236.2c.3,6.8.2,13.5,0,20.2,0,3.4-.3,6.7-.4,10-.2,3.3-.3,6.7-.5,10v1.2c0,.4,0,.9,0,1.1t0,0h0c0-.1,0-.1,0-.1,0-.1,0-.3-.1-.4-.2-.3.2,0-.6-.6-1.2-.8-2.3.1-2.1,0-.2.1-.3.3-.5.5h0c0,.2,0,.2,0,.3h0s0,0,0,0h0c0-.1.1-.7.1-.7l.3-1.2c.4-1.7,1-3.4,1.8-5,.8-1.6,1.8-3.2,3.2-4.6,1.4-1.3,3.5-2.3,5.5-2.3.5,0,1,0,1.5.1.5,0,.9.1,1.3.3.9.2,1.8.6,2.7,1.2.9.6,1.5,1.9,1.5,3,0,1.1-.4,2-.8,2.8-.9,1.6-2.1,2.9-3.3,4-1.3,1.1-2.6,2.2-4.1,3.1,1.3-1.1,2.3-2.4,3.4-3.7,1-1.3,2-2.7,2.5-4.1.3-.7.4-1.5.4-2,0-.6-.3-1-.8-1.3s-1.2-.5-1.9-.6c-.4,0-.8,0-1.1-.1-.4,0-.7,0-1,0-2.7.2-4.6,2.8-5.8,5.6-.6,1.4-1,2.9-1.4,4.5l-.3,1.2-.2.6v.2c0,0-.1.1-.1.1h0c0,.1,0,.2,0,.3,0,0,0,0,0,.2-.1.2-.3.4-.5.5.2,0-1,.8-2.2,0-.8-.7-.4-.4-.6-.7,0-.1-.1-.3-.2-.4h0c0,0,0-.3,0-.3v-.3c0-.5,0-.9,0-1.4v-1.3c.1-3.4.4-6.7.7-10.1.3-3.3.6-6.7,1-10,.8-6.7,1.7-13.4,3-20Z"/>
  </g>
</svg>