<?xml version="1.0" encoding="utf-8"?>
<!-- Generator: Adobe Illustrator 26.2.1, SVG Export Plug-In . SVG Version: 6.00 Build 0)  -->
<svg version="1.1" id="Ebene_1" xmlns="http://www.w3.org/2000/svg" xmlns:xlink="http://www.w3.org/1999/xlink" x="0px" y="0px"
	 viewBox="0 0 233 78" style="enable-background:new 0 0 233 78;" xml:space="preserve">
<style type="text/css">
	.st0{fill:#002647;}
</style>
<g>
	<polygon class="st0" points="14.8,11.1 2.7,11.1 2.7,0.3 0,0.3 0,23 2.7,23 2.7,12.2 14.8,12.2 14.8,23 17.6,23 17.6,0.3 14.8,0.3
			"/>
	<path class="st0" d="M37,16.6l2.7,6.5h3L32.8,0H32l-1.1,3.4L23,23h2l2.2-6.3L37,16.6z M31.7,4l4.9,11.7l-8.9-0.2L31.7,4z"/>
	<path class="st0" d="M62.6,10.9c0,1.8,0.1,3.2,0.1,4.2c0,4.3-2.4,6.8-6.4,6.8c-4.2,0-6-2.1-6-7.1V0.3h-2.7v14.9
		c0,5.6,2.6,8.1,8.4,8.1c5.2,0,7.9-2.9,8-8.6l0.3-14.4h-1.9L62.6,10.9z"/>
	<polygon class="st0" points="86.7,0.3 78,0.5 69.4,0.3 69.4,2.2 76.7,1.4 76.7,23 79.4,23 79.4,1.4 86.7,2.2 	"/>
	<polygon class="st0" points="111.6,0.1 110.2,3.9 103.8,18 95.7,0.1 94.8,0.1 94.4,3.8 91.1,23 93,23 95.2,5.1 102.7,21.8
		103.6,21.8 110.8,5 114.2,23 117,23 112.5,0.1 	"/>
	<polygon class="st0" points="137.8,23 137.8,21.4 126.5,22 126.5,12.1 134.2,12.4 134.2,10.7 126.5,11.1 126.5,1.4 137.5,2
		137.5,0.3 126.5,0.5 123.8,0.3 123.8,23 126.5,22.9 	"/>
	<path class="st0" d="M150.3,1.4c6.6,0.3,9.9,3.8,9.9,10.3c0,6.5-3.3,9.9-9.9,10.3l-2.8,0.1h-2.7V23h5.5c4.2,0,7.4-1,9.6-3
		c2.2-2,3.3-4.8,3.3-8.4c0-3.6-1.1-6.4-3.3-8.4c-2.2-2-5.4-3-9.6-3h-5.5v0.9h2.7L150.3,1.4z"/>
	<rect x="170" y="0.3" class="st0" width="2.7" height="22.7"/>
	<polygon class="st0" points="196.3,23 196.3,21.3 183.6,21.9 196.1,1.2 196.1,0.3 193.5,0.5 180.9,0.3 180.9,2.1 192.9,1.5
		180.3,22.2 180.3,23 182.9,22.9 	"/>
	<rect x="203.8" y="0.3" class="st0" width="2.7" height="22.7"/>
	<polygon class="st0" points="216.8,23 216.5,4.6 231.1,23.1 232,23.1 231.9,19.7 232.4,0.3 230.6,0.3 230.9,18.8 216.2,0.2
		215.3,0.2 215.4,3.8 215,23 	"/>
	<polygon class="st0" points="144.8,12.2 144.8,16.6 147.6,16.6 147.6,12.2 151.2,12.3 152,12.4 152,10.9 151.3,10.9 147.6,11.1
		147.6,6.8 144.8,6.8 144.8,11.1 143,11 140.3,10.9 140.3,12.4 143,12.3 	"/>
	<path class="st0" d="M75.7,40.8c1.7-0.2,2.8-1.4,2.8-2.8c0-1.7-1.6-2.8-4.1-2.8h-3.5v11.6h3.4c3,0,4.6-1.1,4.6-3.2
		C78.9,42.1,77.6,41,75.7,40.8z M72.7,35.7l1.1,0.1c1.8,0.1,2.7,0.8,2.7,2.2c0,1.5-1,2.5-2.6,2.5l-1.2,0.1V35.7z M74.1,46.2
		l-1.4,0.1v-5.2l1.3,0.1c1.9,0.1,3,0.9,3,2.4C76.9,45.2,76,46.1,74.1,46.2z"/>
	<path class="st0" d="M90.3,46.8L85.1,35h-0.5l-0.8,2.2l-4,9.6h1.2l1.1-3l4.8-0.1l1.3,3.1H90.3z M82.5,43.1l1.9-5.4l2.3,5.5
		L82.5,43.1z"/>
	<path class="st0" d="M95.1,35.2h-3.1v11.6h3.1c2.2,0,3.8-0.5,4.9-1.5c1.1-1,1.7-2.4,1.7-4.3c0-1.9-0.6-3.3-1.7-4.3
		C98.9,35.7,97.3,35.2,95.1,35.2z M95.2,46.2l-1.3,0.1V35.7l1.3,0.1c3.1,0.2,4.6,1.9,4.6,5.2C99.8,44.2,98.3,45.9,95.2,46.2z"/>
	<path class="st0" d="M112.9,40.2c-1.2-0.6-1.9-1.1-2.3-1.4c-0.4-0.4-0.6-0.8-0.6-1.4c0-1.1,0.9-1.8,2.1-1.8c1,0,2.1,0.5,3.2,1.4
		v-1.4c-1-0.4-2-0.6-3-0.6c-1.1,0-2.1,0.3-2.8,0.9c-0.7,0.6-1.1,1.4-1.1,2.3c0,1.4,0.8,2.3,3,3.4c1.1,0.5,1.9,1,2.3,1.4
		c0.4,0.4,0.6,0.9,0.6,1.5c0,1.1-1,1.9-2.5,1.9c-0.5,0-1.1-0.1-1.8-0.4c-0.7-0.3-1.3-0.6-1.8-1v1.4c0.9,0.4,2.1,0.7,3.5,0.7
		c2.5,0,4-1.2,4-3.3C115.9,42.3,115.1,41.3,112.9,40.2z"/>
	<path class="st0" d="M126.9,36.6c-1-1.1-2.4-1.7-4-1.7c-1.7,0-3,0.6-4,1.7c-1,1.1-1.5,2.6-1.5,4.3c0,1.8,0.5,3.2,1.5,4.3
		c1,1.1,2.3,1.7,4,1.7c1.7,0,3-0.6,4-1.7c1-1.1,1.5-2.5,1.5-4.3C128.4,39.2,127.9,37.7,126.9,36.6z M125.5,44.9
		c-0.6,1-1.5,1.4-2.6,1.4c-1.1,0-1.9-0.5-2.6-1.4c-0.6-1-1-2.3-1-3.9c0-3.3,1.4-5.4,3.5-5.4c1.1,0,1.9,0.5,2.6,1.4
		c0.6,1,1,2.3,1,3.9C126.4,42.6,126.1,43.9,125.5,44.9z"/>
	<path class="st0" d="M133.8,35.2h-3.1v11.6h3.1c2.2,0,3.8-0.5,4.9-1.5c1.1-1,1.7-2.4,1.7-4.3c0-1.9-0.6-3.3-1.7-4.3
		C137.6,35.7,136,35.2,133.8,35.2z M133.9,46.2l-1.3,0.1V35.7l1.3,0.1c3.1,0.2,4.6,1.9,4.6,5.2C138.5,44.2,136.9,45.9,133.9,46.2z"
		/>
	<polygon class="st0" points="150.1,36.1 150.1,35.2 144.7,35.3 142.9,35.2 142.9,46.8 144.7,46.7 150.3,46.8 150.3,45.8
		144.7,46.2 144.7,41.2 149,41.4 149,40.4 144.7,40.7 144.7,35.8 	"/>
	<polygon class="st0" points="160.5,35.2 160.7,44 153.1,35.1 152.6,35.1 152.6,37.4 152.4,46.8 153.5,46.8 153.3,38 160.9,46.9
		161.4,46.9 161.3,44.5 161.6,35.2 	"/>
</g>
<g>
	<path class="st0" d="M5.8,73.8c0,1.1-0.3,2-1,2.6c-0.7,0.6-1.7,0.9-3,0.9H0v-7h1.8c1.3,0,2.3,0.3,3,0.9C5.5,71.8,5.8,72.6,5.8,73.8
		z M1.9,70.7l-0.8-0.1v6.3l0.8-0.1c1.8-0.1,2.8-1.2,2.8-3.1C4.6,71.8,3.7,70.8,1.9,70.7z"/>
	<path class="st0" d="M8.3,77.2v-7l1.1,0.1l3.2-0.1v0.6l-3.2-0.2v2.9l2.6-0.1V74l-2.6-0.1v3l3.3-0.2v0.6l-3.3-0.1L8.3,77.2z"/>
	<path class="st0" d="M15,77.2v-7h1.9c1.8,0,2.8,0.7,2.8,2c0,1-0.5,1.6-1.6,1.9l2,3.1h-1.3L17,74.3h-0.9v2.9H15z M16.8,70.7
		l-0.7-0.1V74l0.7-0.1c1.1-0.1,1.7-0.7,1.7-1.6C18.5,71.3,18,70.7,16.8,70.7z"/>
	<path class="st0" d="M22.3,77.2l1-5.5l0.2-1.5h0.3l2.6,5.2l1.8-3.7l0.6-1.5H29l1.4,7h-1.1l-0.9-5.1l-2.1,4.7h-0.3l-2.3-4.7l-0.6,5
		H22.3z"/>
	<path class="st0" d="M35.3,70.2l3.1,7.1h-1.2l-0.8-1.9l-2.9,0.1l-0.6,1.8h-0.7l2.4-5.7l0.5-1.3H35.3z M34.9,71.7L33.7,75l2.6,0.1
		L34.9,71.7z"/>
	<path class="st0" d="M44.6,70.3v0.7l-2.2-0.3v6.6h-1.1v-6.6l-2.2,0.3v-0.7l2.7,0.1L44.6,70.3z"/>
	<path class="st0" d="M51.9,76.3c-0.6,0.7-1.4,1-2.4,1c-1,0-1.8-0.3-2.4-1c-0.6-0.7-0.9-1.5-0.9-2.6c0-1.1,0.3-1.9,0.9-2.6
		c0.6-0.7,1.4-1,2.4-1c1,0,1.8,0.3,2.4,1c0.6,0.7,0.9,1.5,0.9,2.6C52.8,74.8,52.5,75.7,51.9,76.3z M51.1,71.4
		c-0.4-0.6-0.9-0.9-1.6-0.9c-1.3,0-2.1,1.2-2.1,3.2c0,1,0.2,1.8,0.6,2.3c0.4,0.6,0.9,0.9,1.5,0.9c0.7,0,1.2-0.3,1.6-0.9
		c0.4-0.6,0.6-1.4,0.6-2.3C51.6,72.8,51.4,72,51.1,71.4z"/>
	<path class="st0" d="M55.3,77.2v-7h1.1v6.6l3.2-0.3v0.7l-3.2-0.1L55.3,77.2z"/>
	<path class="st0" d="M66.9,76.3c-0.6,0.7-1.4,1-2.4,1c-1,0-1.8-0.3-2.4-1c-0.6-0.7-0.9-1.5-0.9-2.6c0-1.1,0.3-1.9,0.9-2.6
		c0.6-0.7,1.4-1,2.4-1c1,0,1.8,0.3,2.4,1c0.6,0.7,0.9,1.5,0.9,2.6C67.8,74.8,67.5,75.7,66.9,76.3z M66,71.4
		c-0.4-0.6-0.9-0.9-1.6-0.9c-1.3,0-2.1,1.2-2.1,3.2c0,1,0.2,1.8,0.6,2.3c0.4,0.6,0.9,0.9,1.5,0.9c0.7,0,1.2-0.3,1.6-0.9
		c0.4-0.6,0.6-1.4,0.6-2.3C66.6,72.8,66.4,72,66,71.4z"/>
	<path class="st0" d="M70.8,71.2c0.6-0.7,1.5-1,2.5-1c0.8,0,1.5,0.1,2.2,0.4v0.9c-0.7-0.6-1.4-1-2.2-1c-0.7,0-1.3,0.3-1.7,0.9
		C71.2,72,71,72.8,71,73.8c0,1,0.2,1.7,0.6,2.3c0.4,0.6,1,0.9,1.6,0.9c0.5,0,1-0.1,1.4-0.3v-2.6h1.1v2.7c-0.3,0.2-0.6,0.3-1.1,0.4
		c-0.5,0.1-0.9,0.2-1.4,0.2c-1,0-1.8-0.3-2.5-1c-0.6-0.7-1-1.5-1-2.6C69.8,72.7,70.1,71.8,70.8,71.2z"/>
	<path class="st0" d="M78.4,77.2v-7h1.1v7H78.4z"/>
	<path class="st0" d="M82.4,77.2v-7l1.1,0.1l3.2-0.1v0.6l-3.2-0.2v2.9l2.6-0.1V74l-2.6-0.1v3l3.3-0.2v0.6l-3.3-0.1L82.4,77.2z"/>
	<path class="st0" d="M94.1,73.7c0.2,0.3,0.2,0.7,0,0.9c-0.3,0.2-0.7,0.2-0.9,0s-0.2-0.7,0-0.9C93.4,73.4,93.8,73.4,94.1,73.7z"/>
	<path class="st0" d="M102.2,77.2h-1.1v-7h1.9c1.7,0,2.8,0.8,2.8,2.2c0,1.4-1.1,2.2-2.8,2.2h-0.8V77.2z M104.6,72.5
		c0-0.5-0.1-1-0.4-1.3c-0.3-0.3-0.7-0.5-1.3-0.5l-0.7-0.1v3.7l0.7-0.1c0.6,0,1-0.2,1.3-0.5C104.5,73.4,104.6,73,104.6,72.5z"/>
	<path class="st0" d="M108.2,77.2v-7h1.1v6.6l3.2-0.3v0.7l-3.2-0.1L108.2,77.2z"/>
	<path class="st0" d="M117.1,70.2l3.1,7.1H119l-0.8-1.9l-2.9,0.1l-0.6,1.8H114l2.4-5.7l0.5-1.3H117.1z M116.7,71.7l-1.2,3.3l2.6,0.1
		L116.7,71.7z"/>
	<path class="st0" d="M126.1,70.5v0.8c-0.7-0.5-1.3-0.8-1.9-0.8c-0.8,0-1.3,0.4-1.3,1.1c0,0.3,0.1,0.6,0.4,0.8
		c0.2,0.2,0.7,0.5,1.4,0.9c1.3,0.7,1.8,1.2,1.8,2.1c0,1.2-0.9,2-2.4,2c-0.8,0-1.5-0.1-2.1-0.4v-0.8c0.3,0.2,0.7,0.4,1.1,0.6
		c0.4,0.2,0.7,0.2,1.1,0.2c0.9,0,1.5-0.5,1.5-1.1c0-0.3-0.1-0.6-0.4-0.9c-0.2-0.2-0.7-0.5-1.4-0.9c-1.3-0.6-1.8-1.2-1.8-2
		c0-0.6,0.2-1,0.6-1.4c0.4-0.4,1-0.5,1.7-0.5C124.9,70.2,125.5,70.3,126.1,70.5z"/>
	<path class="st0" d="M133.5,70.3v0.7l-2.2-0.3v6.6h-1.1v-6.6l-2.2,0.3v-0.7l2.7,0.1L133.5,70.3z"/>
	<path class="st0" d="M135.6,77.2v-7h1.1v7H135.6z"/>
	<path class="st0" d="M143.4,70.5v0.8c-0.7-0.5-1.3-0.8-1.9-0.8c-0.8,0-1.3,0.4-1.3,1.1c0,0.3,0.1,0.6,0.4,0.8
		c0.2,0.2,0.7,0.5,1.4,0.9c1.3,0.7,1.8,1.2,1.8,2.1c0,1.2-0.9,2-2.4,2c-0.8,0-1.5-0.1-2.1-0.4v-0.8c0.3,0.2,0.7,0.4,1.1,0.6
		c0.4,0.2,0.7,0.2,1.1,0.2c0.9,0,1.5-0.5,1.5-1.1c0-0.3-0.1-0.6-0.4-0.9c-0.2-0.2-0.7-0.5-1.4-0.9c-1.3-0.6-1.8-1.2-1.8-2
		c0-0.6,0.2-1,0.6-1.4c0.4-0.4,1-0.5,1.7-0.5C142.2,70.2,142.8,70.3,143.4,70.5z"/>
	<path class="st0" d="M145.7,73.8c0-1.1,0.3-1.9,1-2.6c0.6-0.7,1.5-1,2.5-1c0.8,0,1.5,0.1,2.1,0.4v0.9c-0.7-0.6-1.4-1-2.1-1
		c-0.7,0-1.2,0.3-1.6,0.9c-0.4,0.6-0.6,1.4-0.6,2.3c0,1,0.2,1.7,0.6,2.3c0.4,0.6,0.9,0.9,1.6,0.9c0.7,0,1.4-0.3,2.1-1v0.9
		c-0.6,0.3-1.3,0.4-2.1,0.4c-1,0-1.8-0.3-2.5-1C146,75.7,145.7,74.8,145.7,73.8z"/>
	<path class="st0" d="M154.6,77.2h-1.1v-7h1.1v3.3h3.4v-3.3h1.1v7H158v-3.3h-3.4V77.2z"/>
	<path class="st0" d="M162.1,77.2v-7l1.1,0.1l3.2-0.1v0.6l-3.2-0.2v2.9l2.6-0.1V74l-2.6-0.1v3l3.3-0.2v0.6l-3.3-0.1L162.1,77.2z"/>
	<path class="st0" d="M172.3,73.8c0-1.1,0.3-1.9,1-2.6c0.6-0.7,1.5-1,2.5-1c0.8,0,1.5,0.1,2.1,0.4v0.9c-0.7-0.6-1.4-1-2.1-1
		c-0.7,0-1.2,0.3-1.6,0.9c-0.4,0.6-0.6,1.4-0.6,2.3c0,1,0.2,1.7,0.6,2.3c0.4,0.6,0.9,0.9,1.6,0.9c0.7,0,1.4-0.3,2.1-1v0.9
		c-0.6,0.3-1.3,0.4-2.1,0.4c-1,0-1.8-0.3-2.5-1C172.6,75.7,172.3,74.8,172.3,73.8z"/>
	<path class="st0" d="M181.2,77.2h-1.1v-7h1.1v3.3h3.4v-3.3h1.1v7h-1.1v-3.3h-3.4V77.2z"/>
	<path class="st0" d="M188.7,77.2v-7h1.1v7H188.7z"/>
	<path class="st0" d="M192.8,77.2v-7h1.9c1.8,0,2.8,0.7,2.8,2c0,1-0.5,1.6-1.6,1.9l2,3.1h-1.3l-1.9-2.9h-0.9v2.9H192.8z M194.6,70.7
		l-0.7-0.1V74l0.7-0.1c1.1-0.1,1.7-0.7,1.7-1.6C196.3,71.3,195.7,70.7,194.6,70.7z"/>
	<path class="st0" d="M200.1,70.3h1.1v4.5c0,1.5,0.5,2.1,1.8,2.1c1.2,0,1.9-0.7,1.9-2c0-0.3,0-0.7,0-1.2l-0.1-3.4h0.7l-0.1,4.4
		c-0.1,1.8-0.9,2.6-2.5,2.6c-1.8,0-2.7-0.8-2.7-2.5V70.3z"/>
	<path class="st0" d="M208.3,77.2v-7h1.9c1.8,0,2.8,0.7,2.8,2c0,1-0.5,1.6-1.6,1.9l2,3.1h-1.3l-1.9-2.9h-0.9v2.9H208.3z M210.1,70.7
		l-0.7-0.1V74l0.7-0.1c1.1-0.1,1.7-0.7,1.7-1.6C211.8,71.3,211.2,70.7,210.1,70.7z"/>
	<path class="st0" d="M216.3,71.2c0.6-0.7,1.5-1,2.5-1c0.8,0,1.5,0.1,2.2,0.4v0.9c-0.7-0.6-1.4-1-2.2-1c-0.7,0-1.3,0.3-1.7,0.9
		c-0.4,0.6-0.6,1.4-0.6,2.3c0,1,0.2,1.7,0.6,2.3c0.4,0.6,1,0.9,1.6,0.9c0.5,0,1-0.1,1.4-0.3v-2.6h1.1v2.7c-0.3,0.2-0.6,0.3-1.1,0.4
		c-0.5,0.1-0.9,0.2-1.4,0.2c-1,0-1.8-0.3-2.5-1c-0.6-0.7-1-1.5-1-2.6C215.4,72.7,215.7,71.8,216.3,71.2z"/>
	<path class="st0" d="M223.9,77.2v-7h1.1v7H223.9z"/>
	<path class="st0" d="M228,77.2v-7l1.1,0.1l3.2-0.1v0.6l-3.2-0.2v2.9l2.6-0.1V74l-2.6-0.1v3l3.3-0.2v0.6l-3.3-0.1L228,77.2z"/>
</g>
</svg>
