<?xml version="1.0" encoding="UTF-8"?>
<svg id="Ebene_1" xmlns="http://www.w3.org/2000/svg" version="1.1" viewBox="0 0 204 91">
  <!-- Generator: Adobe Illustrator 29.4.0, SVG Export Plug-In . SVG Version: 2.1.0 Build 152)  -->
  <defs>
    <style>
      .st0 {
        fill: #fff;
      }
    </style>
  </defs>
  <g id="_x39_2a6db7294">
    <path class="st0" d="M50.3,64.5h6.5c1.7,0,3.2.3,4.4,1,1.3.7,2.3,1.6,3,2.8.7,1.2,1.1,2.6,1.1,4.1s-.4,2.9-1.1,4.1c-.7,1.2-1.7,2.1-3,2.8-1.3.7-2.8,1-4.4,1h-6.5v-15.9ZM56.6,78.9c1.4,0,2.6-.3,3.6-.8,1-.6,1.8-1.3,2.4-2.3.6-1,.9-2.1.9-3.4s-.3-2.4-.9-3.4c-.6-1-1.4-1.8-2.4-2.3-1-.6-2.3-.8-3.6-.8h-4.7v13h4.7Z"/>
    <path class="st0" d="M72.1,64.5h1.7v15.9h-1.7v-15.9Z"/>
    <path class="st0" d="M93.3,72.5h1.6v6.1c-.8.6-1.6,1.1-2.6,1.5-1,.3-2.1.5-3.2.5s-3-.3-4.3-1c-1.3-.7-2.3-1.7-3-2.9-.7-1.2-1.1-2.6-1.1-4.1s.4-2.9,1.1-4.1c.7-1.2,1.7-2.2,3-2.9,1.3-.7,2.7-1,4.3-1s2.3.2,3.3.6c1,.4,1.9.9,2.6,1.7l-1,1.1c-1.3-1.2-2.8-1.9-4.8-1.9s-2.4.3-3.5.9c-1,.6-1.8,1.3-2.4,2.4-.6,1-.9,2.1-.9,3.4s.3,2.4.9,3.4c.6,1,1.4,1.8,2.4,2.4,1,.6,2.2.9,3.5.9s3-.4,4.1-1.2v-5.4Z"/>
    <path class="st0" d="M102.8,64.5h1.7v15.9h-1.7v-15.9Z"/>
    <path class="st0" d="M115.9,66h-5.6v-1.5h12.8v1.5h-5.6v14.4h-1.7v-14.4Z"/>
    <path class="st0" d="M138.1,76.2h-8.9l-1.9,4.2h-1.8l7.3-15.9h1.7l7.3,15.9h-1.8l-1.9-4.2ZM137.5,74.8l-3.8-8.5-3.8,8.5h7.6Z"/>
    <path class="st0" d="M147.5,64.5h1.7v14.4h8.9v1.5h-10.6v-15.9Z"/>
    <path class="st0" d="M16.1,37.5c0,.9,0,1.6.2,2,.2.4.4.7.8.8.4.1,1.1.2,2,.2h1.8c2.8,0,5.2-.7,7.2-2.2,2-1.5,3.4-3.5,4-6,0,0,0-.1.2-.1s.1,0,.2,0c0,0,.1,0,.1.1-.3,3.5-.5,6.5-.5,8.8s0,.5-.2.6-.3.2-.6.2H6.4c0,0-.1-.1-.1-.3s0-.3.1-.3c1.1,0,2,0,2.5-.3.5-.2.9-.5,1.1-1,.2-.5.3-1.3.3-2.4V13c0-1.1,0-1.8-.3-2.3-.2-.5-.6-.8-1.1-1-.5-.2-1.3-.3-2.4-.3s-.1-.1-.1-.3,0-.3.1-.3h2.7c1.6.1,3,.2,4.1.2s2.4,0,4-.1h2.7c.1,0,.2,0,.2.3s0,.3-.2.3c-1.1,0-1.9,0-2.5.3-.5.2-.9.6-1.1,1.1-.2.5-.3,1.3-.3,2.4v24.4Z"/>
    <path class="st0" d="M69.3,15.5c0-1.9-.4-3.4-1.3-4.5-.9-1.1-2.1-1.6-3.6-1.6s-.1-.1-.1-.3,0-.3.1-.3h2.6c1.3.1,2.4.2,3.3.2s1.6,0,2.9-.1h2.4c0,0,.1,0,.1.3s0,.3-.1.3c-1.4,0-2.5.6-3.3,1.6-.8,1.1-1.2,2.6-1.2,4.5v14.8c0,2.5-.6,4.7-1.7,6.6-1.1,1.9-2.7,3.3-4.7,4.3-2,1-4.3,1.5-7,1.5s-5-.5-7-1.5c-2-1-3.6-2.4-4.8-4.3-1.2-1.9-1.7-4.1-1.7-6.7V13c0-1.1,0-1.8-.3-2.3-.2-.5-.6-.8-1.1-1-.5-.2-1.3-.3-2.4-.3s-.2-.1-.2-.3,0-.3.2-.3h2.8c1.6.1,2.9.2,3.9.2s2.4,0,4.1-.1h2.7c0,0,.1,0,.1.3s0,.3-.1.3c-1.1,0-1.9.1-2.4.3-.5.2-.9.6-1.1,1.1-.2.5-.3,1.3-.3,2.4v15.3c0,4.2.8,7.3,2.5,9.4,1.7,2,4,3,7.1,3s5.3-.9,6.9-2.7c1.7-1.8,2.5-4.4,2.5-7.7v-14.9Z"/>
    <path class="st0" d="M125.7,41.4c0,0,.1.1.1.3s0,.3-.1.3c-1.2,0-2.2,0-2.9,0h-3.9s-4,0-4,0c-.7,0-1.6,0-2.8,0s-.2-.1-.2-.3,0-.3.2-.3c1.5,0,2.5-.2,3-.5.5-.4.8-1.1.8-2.3v-.9c0,0-1.2-21.8-1.2-21.8l-11,25.8c0,.1-.2.2-.4.2s-.4,0-.4-.2l-13.5-25.6-.4,19.3c0,1.9.4,3.4,1.1,4.5.8,1.1,1.9,1.6,3.4,1.6s.1.1.1.3,0,.3-.1.3c-1,0-1.7,0-2.3,0h-2.9s-3.4,0-3.4,0c-.6,0-1.3,0-2.3,0s-.2-.1-.2-.3,0-.3.2-.3c1.5,0,2.6-.5,3.5-1.6.9-1.1,1.3-2.6,1.4-4.5l.5-22.1h0c-.7-1.4-1.4-2.3-2.2-2.9-.8-.6-1.6-.9-2.6-.9s-.2-.1-.2-.3,0-.3.2-.3h2.5c.5,0,1.1.1,1.9.1h2.8c.3,0,.7-.1,1.2-.1s.8.2,1.1.5c.3.3.7,1.1,1.4,2.3l11.6,21.8,10.1-23.3c.2-.5.4-.8.7-1,.2-.2.5-.3.9-.3s.7,0,1.1,0c.4,0,.9,0,1.4,0h3.1c.5,0,1.2-.1,2.1-.1s.2.1.2.3,0,.3-.2.3c-1.7,0-2.9.3-3.6,1-.8.7-1.1,1.7-1,3.1l1.3,24.2c0,1.1.2,1.9.4,2.4.2.5.5.8,1.1,1,.5.2,1.3.3,2.4.3Z"/>
    <path class="st0" d="M162.4,15.5c0-1.9-.4-3.4-1.3-4.5-.9-1.1-2.1-1.6-3.6-1.6s-.1-.1-.1-.3,0-.3.1-.3h2.6c1.3.1,2.4.2,3.3.2s1.6,0,2.9-.1h2.4c0,0,.1,0,.1.3s0,.3-.1.3c-1.4,0-2.5.6-3.3,1.6-.8,1.1-1.2,2.6-1.2,4.5v14.8c0,2.5-.6,4.7-1.7,6.6-1.1,1.9-2.7,3.3-4.7,4.3-2,1-4.3,1.5-7,1.5s-5-.5-7-1.5c-2-1-3.6-2.4-4.8-4.3-1.2-1.9-1.7-4.1-1.7-6.7V13c0-1.1,0-1.8-.3-2.3-.2-.5-.6-.8-1.1-1-.5-.2-1.3-.3-2.4-.3s-.2-.1-.2-.3,0-.3.2-.3h2.8c1.6.1,2.9.2,3.9.2s2.4,0,4.1-.1h2.7c0,0,.1,0,.1.3s0,.3-.1.3c-1.1,0-1.9.1-2.4.3-.5.2-.9.6-1.1,1.1-.2.5-.3,1.3-.3,2.4v15.3c0,4.2.8,7.3,2.5,9.4,1.7,2,4,3,7.1,3s5.3-.9,6.9-2.7c1.7-1.8,2.5-4.4,2.5-7.7v-14.9Z"/>
    <path class="st0" d="M183,14.1c0,1.3.3,2.4,1,3.4.7,1,1.5,1.9,2.4,2.6s2.3,1.7,3.9,2.7c1.8,1.1,3.2,2.1,4.3,3,1.1.8,2,1.9,2.7,3.1.8,1.2,1.1,2.6,1.1,4.2s-.5,3.5-1.5,4.9c-1,1.4-2.4,2.6-4.1,3.4-1.8.8-3.7,1.2-5.9,1.2s-3.3-.2-5-.7c-1.7-.4-2.9-.9-3.5-1.5-.2-.1-.3-.3-.4-.4,0-.1-.1-.3-.1-.6l-.2-8.5h0c0-.2,0-.3.3-.3.2,0,.3,0,.3.2,1.1,2.2,2,3.9,2.8,5.3.8,1.3,1.8,2.5,3,3.6,1.2,1,2.6,1.5,4.2,1.5s2.6-.4,3.5-1.1c.9-.8,1.4-2.1,1.4-3.9s-.3-2.9-1-4.1c-.7-1.2-1.5-2.2-2.5-3-1-.8-2.4-1.8-4.1-2.9-1.7-1.1-3-2-4-2.8-.9-.8-1.8-1.7-2.4-2.8-.7-1.1-1-2.4-1-3.9s.5-3.5,1.6-4.8c1.1-1.3,2.5-2.3,4.2-2.9,1.7-.6,3.5-.9,5.4-.9s2.5.1,3.8.4c1.3.2,2.3.5,3.1.8.3.1.5.3.6.5.1.2.2.4.2.6v7.9c0,0,0,.2-.3.2-.2,0-.3,0-.3,0l-.4-1c-.9-2.3-1.9-4.2-3.1-5.7-1.2-1.6-2.9-2.4-5-2.4s-2.6.4-3.5,1.2c-.9.8-1.4,2-1.4,3.6Z"/>
  </g>
</svg>