<?xml version="1.0" encoding="UTF-8"?>
<svg id="Ebene_1" xmlns="http://www.w3.org/2000/svg" version="1.1" viewBox="0 0 382 100">
  <!-- Generator: Adobe Illustrator 29.4.0, SVG Export Plug-In . SVG Version: 2.1.0 Build 152)  -->
  <defs>
    <style>
      .st0 {
        fill: none;
      }

      .st1 {
        isolation: isolate;
      }

      .st2 {
        fill: #fff;
      }

      .st3 {
        fill: #1d2231;
      }
    </style>
  </defs>
  <rect class="st0" x="21.7" y="23.9" width="414.3" height="47.1"/>
  <g class="st1">
    <path class="st3" d="M24.5,25.8h8.3l11.7,19.2h0v-19.2h6.1v27.6h-8l-12.1-19.7h0v19.7h-6.1v-27.6Z"/>
    <path class="st3" d="M67.5,51h0c-.6,1-1.5,1.7-2.6,2.2-1.1.4-2.2.7-3.4.7s-1.7-.1-2.6-.4c-.8-.2-1.5-.6-2.2-1.1s-1.1-1.1-1.5-1.8-.5-1.6-.5-2.5.2-2,.6-2.8c.4-.8.9-1.4,1.6-1.9.7-.5,1.5-.9,2.4-1.2.9-.3,1.8-.5,2.7-.6.9-.1,1.9-.2,2.8-.2.9,0,1.8,0,2.6,0,0-1-.4-1.9-1.1-2.5-.7-.6-1.6-.9-2.6-.9s-1.8.2-2.6.6c-.8.4-1.5,1-2.1,1.7l-3.1-3.2c1.1-1,2.4-1.8,3.8-2.3,1.5-.5,3-.8,4.5-.8s3.1.2,4.2.6c1.1.4,2,1.1,2.7,1.9.7.8,1.1,1.9,1.4,3.1.3,1.2.4,2.6.4,4.2v9.6h-5.4v-2.4ZM66,45.1c-.4,0-1,0-1.7,0-.7,0-1.3.1-1.9.3-.6.2-1.1.5-1.6.8-.4.4-.6.9-.6,1.5s.3,1.2.9,1.6c.6.3,1.2.5,1.9.5s1.1,0,1.7-.2c.5-.2,1-.4,1.4-.7.4-.3.7-.6,1-1.1.2-.4.4-1,.4-1.6v-1.2h-1.4Z"/>
    <path class="st3" d="M75.8,47.5l9.8-8.4h-9.6v-4.7h16.4v5.6l-10.3,8.7h10.5v4.7h-16.8v-5.8Z"/>
    <path class="st3" d="M113.9,50.1c-.9,1.2-2.1,2.1-3.5,2.8-1.4.6-2.9,1-4.4,1s-2.8-.2-4.1-.7c-1.3-.5-2.4-1.1-3.4-2-.9-.9-1.7-1.9-2.2-3.1-.5-1.2-.8-2.6-.8-4.1s.3-2.9.8-4.1c.5-1.2,1.3-2.3,2.2-3.1.9-.9,2.1-1.5,3.4-2,1.3-.5,2.7-.7,4.1-.7s2.6.2,3.7.7c1.1.5,2,1.1,2.8,2,.8.9,1.4,1.9,1.8,3.1.4,1.2.6,2.6.6,4.1v1.8h-13.6c.2,1.1.7,2,1.5,2.7s1.7,1,2.9,1,1.8-.2,2.4-.6c.7-.4,1.2-1,1.7-1.7l4.1,3ZM109,41.8c0-1-.3-1.8-1-2.5-.7-.7-1.5-1.1-2.6-1.1s-1.2.1-1.7.3c-.5.2-.9.5-1.3.8-.4.3-.6.7-.8,1.1-.2.4-.3.9-.3,1.3h7.7Z"/>
    <path class="st3" d="M118.4,34.4h5.6v2.6h0c.2-.4.4-.7.8-1.1.3-.4.7-.7,1.2-1,.5-.3,1-.5,1.6-.7.6-.2,1.2-.3,1.9-.3,1.3,0,2.5.3,3.5.8,1,.5,1.8,1.4,2.3,2.6.7-1.2,1.5-2.1,2.5-2.6,1-.5,2.1-.8,3.5-.8s2.3.2,3.2.6c.9.4,1.6,1,2.1,1.8s.9,1.6,1.1,2.6c.2,1,.3,2.1.3,3.2v11.2h-5.8v-11c0-.9-.2-1.6-.6-2.3-.4-.6-1-1-2-1s-1.2.1-1.7.3c-.5.2-.8.5-1.1.9-.3.4-.5.8-.6,1.4-.1.5-.2,1.1-.2,1.6v10h-5.9v-10c0-.3,0-.8,0-1.2,0-.5-.1-1-.3-1.4-.2-.4-.4-.8-.8-1.1-.4-.3-.9-.5-1.5-.5s-1.4.1-1.8.4c-.5.3-.8.6-1.1,1.1-.2.5-.4,1-.5,1.5,0,.6-.1,1.2-.1,1.8v9.4h-5.9v-19Z"/>
    <path class="st3" d="M163.2,47.8l14-16.6h-13.5v-5.4h20.9v5.4l-13.7,16.6h14.2v5.6h-21.8v-5.6Z"/>
    <path class="st3" d="M188,28.5c0-.9.3-1.7,1-2.4s1.5-1,2.4-1,1.7.3,2.4,1,1,1.5,1,2.4-.3,1.7-1,2.4-1.5,1-2.4,1-1.7-.3-2.4-1-1-1.5-1-2.4ZM188.5,34.4h5.9v19h-5.9v-19Z"/>
    <path class="st3" d="M198.6,34.4h5.6v2.6h0c.2-.4.4-.7.8-1.1s.7-.7,1.2-1c.5-.3,1-.5,1.6-.7.6-.2,1.2-.3,1.9-.3,1.5,0,2.7.2,3.6.7.9.5,1.6,1.1,2.1,1.9s.9,1.8,1,2.8.3,2.3.3,3.5v10.5h-5.8v-9.3c0-.5,0-1.1,0-1.7s-.2-1.1-.4-1.6-.5-.9-.9-1.2c-.4-.3-1-.5-1.7-.5s-1.4.1-1.8.4c-.5.3-.8.6-1.1,1.1s-.4,1-.5,1.5c0,.6-.1,1.2-.1,1.8v9.4h-5.8v-19Z"/>
    <path class="st3" d="M238.9,50.1c-.9,1.2-2.1,2.1-3.5,2.8s-2.9,1-4.4,1-2.8-.2-4.1-.7c-1.3-.5-2.4-1.1-3.4-2-.9-.9-1.7-1.9-2.2-3.1-.5-1.2-.8-2.6-.8-4.1s.3-2.9.8-4.1c.5-1.2,1.3-2.3,2.2-3.1.9-.9,2.1-1.5,3.4-2,1.3-.5,2.7-.7,4.1-.7s2.6.2,3.7.7c1.1.5,2,1.1,2.8,2,.8.9,1.4,1.9,1.8,3.1.4,1.2.6,2.6.6,4.1v1.8h-13.6c.2,1.1.7,2,1.5,2.7.8.7,1.7,1,2.9,1s1.8-.2,2.4-.6c.7-.4,1.2-1,1.7-1.7l4.1,3ZM233.9,41.8c0-1-.3-1.8-1-2.5s-1.5-1.1-2.6-1.1-1.2.1-1.7.3c-.5.2-.9.5-1.3.8-.4.3-.6.7-.8,1.1-.2.4-.3.9-.3,1.3h7.7Z"/>
    <path class="st3" d="M243.4,23.9h5.9v29.5h-5.9v-29.5Z"/>
    <path class="st3" d="M265.4,51h0c-.6,1-1.5,1.7-2.6,2.2-1.1.4-2.2.7-3.4.7s-1.7-.1-2.6-.4c-.8-.2-1.5-.6-2.2-1.1s-1.1-1.1-1.5-1.8-.5-1.6-.5-2.5.2-2,.6-2.8c.4-.8.9-1.4,1.6-1.9.7-.5,1.5-.9,2.4-1.2.9-.3,1.8-.5,2.7-.6.9-.1,1.9-.2,2.8-.2.9,0,1.8,0,2.6,0,0-1-.4-1.9-1.1-2.5-.7-.6-1.6-.9-2.6-.9s-1.8.2-2.6.6c-.8.4-1.5,1-2.1,1.7l-3.1-3.2c1.1-1,2.4-1.8,3.8-2.3,1.5-.5,3-.8,4.5-.8s3.1.2,4.2.6c1.1.4,2,1.1,2.7,1.9.7.8,1.1,1.9,1.4,3.1s.4,2.6.4,4.2v9.6h-5.4v-2.4ZM263.9,45.1c-.4,0-1,0-1.7,0-.7,0-1.3.1-1.9.3-.6.2-1.1.5-1.6.8s-.6.9-.6,1.5.3,1.2.9,1.6c.6.3,1.2.5,1.9.5s1.1,0,1.7-.2c.5-.2,1-.4,1.4-.7.4-.3.7-.6,1-1.1.2-.4.4-1,.4-1.6v-1.2h-1.4Z"/>
    <path class="st3" d="M275,23.9h5.8v12.6h0c.7-.9,1.5-1.6,2.6-1.9s2.2-.6,3.4-.6,2.6.3,3.6.8c1.1.6,2,1.3,2.7,2.2.7.9,1.3,2,1.7,3.2.4,1.2.6,2.5.6,3.8s-.2,2.7-.7,3.9c-.4,1.2-1.1,2.2-1.9,3.1-.8.9-1.8,1.5-2.9,2-1.1.5-2.4.7-3.8.7s-1.3,0-1.9-.3c-.6-.2-1.2-.4-1.7-.7-.5-.3-.9-.6-1.3-1-.4-.4-.7-.7-.9-1h0v2.5h-5.4v-29.5ZM280.3,43.9c0,1.4.4,2.6,1.2,3.5s2,1.3,3.5,1.3,2.6-.4,3.5-1.3,1.2-2,1.2-3.5-.4-2.6-1.2-3.5c-.8-.9-2-1.3-3.5-1.3s-2.6.4-3.5,1.3c-.8.9-1.2,2-1.2,3.5Z"/>
    <path class="st3" d="M316.9,50.1c-.9,1.2-2.1,2.1-3.5,2.8-1.4.6-2.9,1-4.4,1s-2.8-.2-4.1-.7c-1.3-.5-2.4-1.1-3.4-2-1-.9-1.7-1.9-2.2-3.1-.5-1.2-.8-2.6-.8-4.1s.3-2.9.8-4.1c.5-1.2,1.3-2.3,2.2-3.1.9-.9,2.1-1.5,3.4-2,1.3-.5,2.7-.7,4.1-.7s2.6.2,3.7.7c1.1.5,2,1.1,2.8,2,.8.9,1.4,1.9,1.8,3.1.4,1.2.6,2.6.6,4.1v1.8h-13.6c.2,1.1.7,2,1.5,2.7.8.7,1.7,1,2.9,1s1.8-.2,2.4-.6c.7-.4,1.2-1,1.7-1.7l4.1,3ZM312,41.8c0-1-.3-1.8-1-2.5-.7-.7-1.5-1.1-2.6-1.1s-1.2.1-1.7.3c-.5.2-.9.5-1.3.8-.4.3-.6.7-.8,1.1-.2.4-.3.9-.3,1.3h7.7Z"/>
    <path class="st3" d="M341.3,53.4h-5.4v-2.5h0c-.2.3-.5.7-.9,1-.4.4-.8.7-1.3,1-.5.3-1.1.5-1.7.7-.6.2-1.2.3-1.9.3-1.4,0-2.7-.2-3.8-.7-1.1-.5-2.1-1.2-2.9-2-.8-.9-1.5-1.9-1.9-3.1-.4-1.2-.7-2.5-.7-3.9s.2-2.6.6-3.8c.4-1.2,1-2.3,1.7-3.2.7-.9,1.6-1.7,2.7-2.2,1.1-.6,2.3-.8,3.6-.8s2.4.2,3.4.6,1.9,1,2.6,1.9h0v-12.6h5.8v29.5ZM335.9,43.9c0-1.4-.4-2.6-1.2-3.5-.8-.9-2-1.3-3.5-1.3s-2.6.4-3.5,1.3c-.8.9-1.2,2-1.2,3.5s.4,2.6,1.2,3.5,2,1.3,3.5,1.3,2.6-.4,3.5-1.3c.8-.9,1.2-2,1.2-3.5Z"/>
    <path class="st3" d="M345.6,28.5c0-.9.3-1.7,1-2.4s1.5-1,2.4-1,1.7.3,2.4,1,1,1.5,1,2.4-.3,1.7-1,2.4-1.5,1-2.4,1-1.7-.3-2.4-1-1-1.5-1-2.4ZM346,34.4h5.9v19h-5.9v-19Z"/>
    <path class="st3" d="M356.1,34.4h5.6v2.6h0c.2-.4.4-.7.8-1.1s.7-.7,1.2-1c.5-.3,1-.5,1.6-.7.6-.2,1.2-.3,2-.3,1.5,0,2.7.2,3.6.7s1.6,1.1,2.1,1.9.9,1.8,1,2.8.3,2.3.3,3.5v10.5h-5.9v-9.3c0-.5,0-1.1,0-1.7s-.2-1.1-.4-1.6-.5-.9-.9-1.2c-.4-.3-1-.5-1.7-.5s-1.4.1-1.8.4c-.5.3-.8.6-1.1,1.1s-.4,1-.5,1.5c0,.6-.1,1.2-.1,1.8v9.4h-5.8v-19Z"/>
  </g>
  <rect class="st0" x="187.9" y="63.5" width="189.1" height="27.5"/>
  <g class="st1">
    <path class="st3" d="M190.4,64.8h5.3c.6,0,1.3,0,2,.2.7.1,1.3.4,1.9.8.6.4,1.1.9,1.4,1.5.4.6.6,1.4.6,2.4s-.2,1.6-.5,2.2-.7,1.1-1.2,1.5c-.5.4-1.1.7-1.8.9-.7.2-1.4.3-2.1.3h-4v8.7h-1.7v-18.4ZM192.1,72.9h3.9c.5,0,1,0,1.4-.2.5-.1.9-.3,1.2-.5.4-.3.7-.6.9-1s.3-.9.3-1.5-.1-1.1-.4-1.5c-.2-.4-.5-.8-.9-1-.4-.3-.8-.5-1.3-.6s-1-.2-1.5-.2h-3.8v6.6Z"/>
    <path class="st3" d="M207.1,63.5h1.6v19.7h-1.6v-19.7Z"/>
    <path class="st3" d="M224.4,78.1c0,.6,0,1.1,0,1.6,0,.5,0,.9,0,1.3,0,.4,0,.8,0,1.1,0,.3,0,.7.1,1h-1.5c-.1-.6-.2-1.2-.2-1.9h0c-.5.8-1,1.4-1.7,1.7-.7.4-1.5.5-2.5.5s-1,0-1.5-.2c-.5-.1-1-.3-1.4-.6-.4-.3-.7-.7-1-1.1-.3-.5-.4-1-.4-1.6,0-.9.2-1.6.7-2.2.5-.5,1-.9,1.7-1.2.7-.3,1.4-.4,2.2-.5s1.5-.1,2-.1h1.8v-.7c0-1-.3-1.8-1-2.2-.6-.4-1.4-.7-2.4-.7-1.4,0-2.6.5-3.7,1.4l-.9-1.1c.6-.6,1.3-1,2.1-1.3s1.7-.4,2.4-.4c1.5,0,2.6.3,3.5,1,.9.7,1.3,1.8,1.3,3.3v2.9ZM221.3,77.1c-.7,0-1.3,0-1.9.1-.6,0-1.2.2-1.7.4-.5.2-.9.5-1.2.8-.3.3-.4.8-.4,1.3s0,.7.2,1c.2.3.4.5.6.7s.5.3.9.4c.3,0,.6.1,1,.1.8,0,1.5-.1,2.1-.4.5-.2,1-.6,1.3-.9.3-.4.5-.8.7-1.3.1-.5.2-1,.2-1.5v-.8h-1.7Z"/>
    <path class="st3" d="M230.5,74.5c0-.2,0-.5,0-.8,0-.3,0-.6,0-1,0-.3,0-.6,0-.9,0-.3,0-.5,0-.7h1.6c0,.5,0,.9,0,1.3s0,.7,0,.8h0c.3-.7.8-1.2,1.6-1.7.7-.5,1.6-.7,2.5-.7s1.7.1,2.3.4c.6.3,1.1.7,1.4,1.2s.6,1,.7,1.7c.1.6.2,1.3.2,1.9v7.2h-1.6v-7.1c0-.5,0-1-.1-1.4s-.2-.9-.5-1.2c-.2-.4-.5-.7-.9-.9-.4-.2-.9-.3-1.5-.3s-1.1,0-1.6.3c-.5.2-1,.5-1.3.9-.4.4-.7.9-.9,1.5s-.3,1.3-.3,2.2v6h-1.6v-8.6Z"/>
    <path class="st3" d="M257.1,79.8c0,.2,0,.5,0,.8,0,.3,0,.6,0,1,0,.3,0,.6,0,.9,0,.3,0,.5,0,.7h-1.6c0-.4,0-.9,0-1.3s0-.7,0-.8h0c-.3.7-.8,1.2-1.6,1.7s-1.6.7-2.5.7-1.7-.1-2.3-.4c-.6-.3-1.1-.7-1.4-1.2s-.6-1-.7-1.7-.2-1.3-.2-1.9v-7.2h1.6v7.1c0,.5,0,1,.1,1.4,0,.5.2.9.5,1.2.2.4.5.7.9.9.4.2.9.3,1.5.3s1.1,0,1.6-.3c.5-.2,1-.5,1.3-.9.4-.4.7-.9.9-1.5s.3-1.3.3-2.2v-6h1.6v8.6Z"/>
    <path class="st3" d="M263.4,74.5c0-.2,0-.5,0-.8,0-.3,0-.6,0-1,0-.3,0-.6,0-.9,0-.3,0-.5,0-.7h1.6c0,.5,0,.9,0,1.3s0,.7,0,.8h0c.3-.7.8-1.2,1.6-1.7.7-.5,1.6-.7,2.5-.7s1.7.1,2.3.4c.6.3,1.1.7,1.4,1.2s.6,1,.7,1.7c.1.6.2,1.3.2,1.9v7.2h-1.6v-7.1c0-.5,0-1-.1-1.4,0-.5-.2-.9-.5-1.2-.2-.4-.5-.7-.9-.9s-.9-.3-1.5-.3-1.1,0-1.6.3c-.5.2-1,.5-1.3.9-.4.4-.7.9-.9,1.5s-.3,1.3-.3,2.2v6h-1.6v-8.6Z"/>
    <path class="st3" d="M291.9,82.4c0,1.5-.2,2.7-.6,3.6-.4.9-1,1.6-1.6,2.1-.7.5-1.3.8-2.1,1s-1.4.3-2,.3-1.2,0-1.8-.2c-.6-.1-1.1-.3-1.7-.5-.5-.2-1-.5-1.4-.8-.4-.3-.8-.7-1.1-1.1l1.2-1.1c.6.8,1.2,1.4,2.1,1.7.8.4,1.7.5,2.7.5s1.5-.1,2-.3c.5-.2,1-.5,1.4-.8.4-.3.6-.7.8-1.1.2-.4.3-.8.4-1.2,0-.4.2-.8.2-1.2,0-.4,0-.7,0-.9v-1.7h0c-.5.7-1.1,1.3-1.8,1.7-.8.4-1.7.6-2.7.6s-1.7-.2-2.5-.5c-.8-.3-1.5-.8-2-1.3-.6-.6-1-1.2-1.4-2-.3-.7-.5-1.5-.5-2.4s.2-1.6.5-2.4c.3-.7.8-1.4,1.4-2,.6-.6,1.3-1,2-1.3.8-.3,1.6-.5,2.5-.5s1.9.2,2.7.6c.8.4,1.4,1,1.8,1.7h0v-2h1.6v11.2ZM290.4,77c0-.7-.1-1.3-.4-1.9-.3-.6-.6-1.1-1-1.5-.4-.4-.9-.8-1.5-1-.6-.2-1.2-.4-1.9-.4s-1.3.1-1.9.4c-.6.3-1.1.6-1.5,1-.4.4-.8.9-1,1.5-.3.6-.4,1.2-.4,1.9s.1,1.3.4,1.9c.3.6.6,1.1,1,1.5.4.4.9.8,1.5,1,.6.3,1.2.4,1.9.4s1.3-.1,1.9-.4c.6-.2,1.1-.6,1.5-1s.8-.9,1-1.5c.3-.6.4-1.2.4-1.9Z"/>
    <path class="st3" d="M297.7,80.1c.3.6.8,1.1,1.5,1.5.6.3,1.3.5,2,.5s.7,0,1-.2c.3-.1.6-.2.9-.4.3-.2.5-.4.6-.7.2-.3.2-.6.2-.9,0-.6-.2-1-.5-1.2-.4-.3-.8-.5-1.3-.7-.5-.2-1.1-.3-1.7-.4-.6-.1-1.2-.3-1.7-.5-.5-.2-1-.6-1.3-1s-.5-1-.5-1.8.1-1.1.4-1.5c.2-.4.6-.8.9-1.1s.8-.5,1.3-.6c.5-.1,1-.2,1.5-.2,1,0,1.8.2,2.6.5.7.4,1.3.9,1.7,1.7l-1.4.8c-.3-.6-.7-1-1.1-1.3-.4-.3-1-.4-1.7-.4s-.6,0-.9.1c-.3,0-.6.2-.8.4-.2.2-.4.4-.6.6-.2.2-.2.5-.2.8,0,.5.2.9.5,1.2.4.3.8.5,1.3.6.5.1,1.1.3,1.7.4.6.1,1.2.3,1.7.5.5.2,1,.6,1.3,1,.4.4.5,1.1.5,1.9s-.1,1.2-.4,1.6c-.2.5-.6.8-1,1.2s-.9.5-1.4.7c-.5.2-1.1.2-1.6.2-1,0-2-.2-2.8-.6-.9-.4-1.5-1-2-1.8l1.4-.9Z"/>
    <path class="st3" d="M310.4,63.5h1.6v9.8h0c.2-.4.5-.8.9-1.1.4-.3.8-.6,1.2-.8s.9-.3,1.3-.4c.5,0,.9-.1,1.4-.1.9,0,1.8.2,2.5.5s1.4.8,2,1.3c.6.6,1,1.2,1.3,2,.3.8.5,1.6.5,2.5s-.2,1.8-.5,2.5c-.3.8-.8,1.4-1.3,2-.6.6-1.2,1-2,1.3-.8.3-1.6.5-2.5.5s-.9,0-1.4-.1c-.5,0-.9-.2-1.3-.4-.4-.2-.8-.4-1.2-.8-.4-.3-.7-.7-.9-1.1h0v2.1h-1.6v-19.7ZM311.8,77.2c0,.7.1,1.3.4,1.9.3.6.6,1.1,1.1,1.6.5.4,1,.8,1.6,1.1.6.3,1.3.4,2,.4s1.4-.1,2-.4c.6-.3,1.1-.6,1.5-1.1.4-.4.7-1,.9-1.6.2-.6.3-1.2.3-1.9s-.1-1.3-.3-1.9c-.2-.6-.5-1.1-.9-1.6s-.9-.8-1.5-1.1c-.6-.3-1.2-.4-2-.4s-1.4.1-2,.4c-.6.3-1.1.6-1.6,1.1-.5.4-.8,1-1.1,1.6s-.4,1.2-.4,1.9Z"/>
    <path class="st3" d="M338.8,79.8c0,.2,0,.5,0,.8s0,.6,0,1c0,.3,0,.6,0,.9,0,.3,0,.5,0,.7h-1.6c0-.4,0-.9,0-1.3s0-.7,0-.8h0c-.3.7-.8,1.2-1.6,1.7-.7.5-1.6.7-2.5.7s-1.7-.1-2.3-.4c-.6-.3-1.1-.7-1.4-1.2-.3-.5-.6-1-.7-1.7s-.2-1.3-.2-1.9v-7.2h1.6v7.1c0,.5,0,1,.1,1.4,0,.5.2.9.5,1.2.2.4.5.7.9.9s.9.3,1.5.3,1.1,0,1.6-.3c.5-.2,1-.5,1.3-.9.4-.4.7-.9.9-1.5s.3-1.3.3-2.2v-6h1.6v8.6ZM330,66.2c0-.3.1-.6.4-.9.2-.2.5-.4.9-.4s.6.1.9.4c.2.2.4.5.4.9s-.1.6-.4.9c-.2.2-.5.4-.9.4s-.6-.1-.9-.4c-.2-.2-.4-.5-.4-.9ZM335,66.2c0-.3.1-.6.4-.9.2-.2.5-.4.9-.4s.6.1.9.4c.2.2.4.5.4.9s-.1.6-.4.9c-.2.2-.5.4-.9.4s-.6-.1-.9-.4c-.2-.2-.4-.5-.4-.9Z"/>
    <path class="st3" d="M345,74.5c0-.2,0-.5,0-.8,0-.3,0-.6,0-1,0-.3,0-.6,0-.9,0-.3,0-.5,0-.7h1.6c0,.5,0,.9,0,1.3s0,.7,0,.8c.4-.7.9-1.3,1.5-1.7.6-.4,1.4-.7,2.3-.7s.3,0,.5,0c.1,0,.3,0,.5,0l-.2,1.5c-.2,0-.4-.1-.6-.1-.7,0-1.3.1-1.8.3-.5.2-.9.5-1.2.9-.3.4-.6.8-.7,1.3-.2.5-.2,1.1-.2,1.7v6.6h-1.6v-8.6Z"/>
    <path class="st3" d="M354.5,77.2c0-.9.2-1.8.5-2.5.3-.8.7-1.4,1.3-2,.6-.6,1.2-1,2-1.3.8-.3,1.6-.5,2.5-.5s1.8.2,2.5.5,1.4.8,2,1.3c.6.6,1,1.2,1.3,2,.3.8.5,1.6.5,2.5s-.2,1.8-.5,2.5c-.3.8-.8,1.4-1.3,2-.6.6-1.2,1-2,1.3-.8.3-1.6.5-2.5.5s-1.8-.2-2.5-.5c-.8-.3-1.4-.7-2-1.3-.6-.6-1-1.2-1.3-2-.3-.8-.5-1.6-.5-2.5ZM356.1,77.2c0,.7.1,1.3.3,1.9.2.6.5,1.1.9,1.6.4.4.9.8,1.5,1.1.6.3,1.2.4,2,.4s1.4-.1,2-.4c.6-.3,1.1-.6,1.5-1.1.4-.4.7-1,.9-1.6.2-.6.3-1.2.3-1.9s-.1-1.3-.3-1.9-.5-1.1-.9-1.6-.9-.8-1.5-1.1c-.6-.3-1.2-.4-2-.4s-1.4.1-2,.4-1.1.6-1.5,1.1-.7,1-.9,1.6-.3,1.2-.3,1.9Z"/>
  </g>
  <rect class="st0" x="22" y="63" width="136" height="28"/>
  <g class="st1">
    <path class="st3" d="M24.3,64.2h5.7c1.6,0,2.9.2,4.1.6,1.1.4,2,.9,2.8,1.5.7.6,1.3,1.3,1.7,2,.4.7.7,1.4.9,2.1.2.7.3,1.3.4,1.8,0,.5,0,.9,0,1.2s0,.6,0,1.2c0,.5-.2,1.2-.4,1.8s-.5,1.4-.9,2.1-1,1.4-1.7,2c-.7.6-1.7,1.1-2.8,1.5-1.1.4-2.5.6-4.1.6h-5.7v-18.4ZM26,81.1h3.5c1.2,0,2.3-.2,3.4-.5,1.1-.3,2-.8,2.8-1.4.8-.6,1.4-1.4,1.8-2.4s.7-2.1.7-3.4-.2-2.5-.7-3.4-1.1-1.8-1.8-2.4c-.8-.6-1.7-1.1-2.8-1.4-1.1-.3-2.2-.5-3.4-.5h-3.5v15.3Z"/>
    <path class="st3" d="M45.2,65.9c0-.3.1-.6.3-.8.2-.2.5-.3.8-.3s.6.1.8.3c.2.2.3.5.3.8s-.1.6-.3.8c-.2.2-.5.3-.8.3s-.6-.1-.8-.3c-.2-.2-.3-.5-.3-.8ZM45.6,70.6h1.6v12h-1.6v-12Z"/>
    <path class="st3" d="M53.2,70.6h1.6v2.1h0c.2-.4.5-.8.9-1.1.4-.3.8-.6,1.2-.8.4-.2.9-.3,1.3-.4.5,0,.9-.1,1.4-.1.9,0,1.8.2,2.5.5.8.3,1.4.8,2,1.3.6.6,1,1.2,1.3,2s.5,1.6.5,2.5-.2,1.8-.5,2.5-.8,1.4-1.3,2c-.6.6-1.2,1-2,1.3-.8.3-1.6.5-2.5.5s-.9,0-1.4-.1c-.5,0-.9-.2-1.3-.4-.4-.2-.8-.5-1.2-.8-.4-.3-.7-.7-.9-1.1h0v8h-1.6v-17.9ZM54.6,76.7c0,.7.1,1.3.4,1.9.3.6.6,1.1,1.1,1.6.5.4,1,.8,1.6,1.1.6.3,1.3.4,2,.4s1.4-.1,2-.4c.6-.3,1.1-.6,1.5-1.1.4-.4.7-1,.9-1.6.2-.6.3-1.2.3-1.9s-.1-1.3-.3-1.9c-.2-.6-.5-1.1-.9-1.6-.4-.4-.9-.8-1.5-1.1-.6-.3-1.2-.4-2-.4s-1.4.1-2,.4c-.6.3-1.1.6-1.6,1.1-.5.4-.8,1-1.1,1.6-.3.6-.4,1.2-.4,1.9Z"/>
    <path class="st3" d="M71.7,63h1.6v19.7h-1.6v-19.7Z"/>
    <path class="st3" d="M79.7,81.6c0-.3.1-.6.4-.9.2-.2.5-.4.9-.4s.6.1.9.4.4.5.4.9-.1.6-.4.9c-.2.2-.5.4-.9.4s-.6-.1-.9-.4c-.2-.2-.4-.5-.4-.9Z"/>
    <path class="st3" d="M87.4,75.8h6.4v1.4h-6.4v-1.4Z"/>
    <path class="st3" d="M99.4,64.2h1.7v18.4h-1.7v-18.4Z"/>
    <path class="st3" d="M107.7,74c0-.2,0-.5,0-.8,0-.3,0-.6,0-1,0-.3,0-.6,0-.9,0-.3,0-.5,0-.7h1.6c0,.5,0,.9,0,1.3s0,.7,0,.8h0c.3-.7.8-1.2,1.6-1.7.7-.5,1.6-.7,2.5-.7s1.7.1,2.3.4,1.1.7,1.4,1.2.6,1,.7,1.7c.1.6.2,1.3.2,1.9v7.2h-1.6v-7.1c0-.5,0-1-.1-1.4,0-.5-.2-.9-.5-1.2-.2-.4-.5-.7-.9-.9-.4-.2-.9-.3-1.5-.3s-1.1,0-1.6.3-1,.5-1.3.9c-.4.4-.7.9-.9,1.5s-.3,1.3-.3,2.2v6h-1.6v-8.6Z"/>
    <path class="st3" d="M136.2,81.9c0,1.5-.2,2.7-.6,3.6-.4.9-1,1.6-1.6,2.1s-1.3.8-2.1,1c-.7.2-1.4.3-2,.3s-1.2,0-1.8-.2c-.6-.1-1.1-.3-1.7-.5s-1-.5-1.4-.8c-.4-.3-.8-.7-1.1-1.1l1.2-1.1c.6.8,1.2,1.4,2.1,1.7s1.7.5,2.7.5,1.5-.1,2-.3c.5-.2,1-.5,1.4-.8.4-.3.6-.7.8-1.1s.3-.8.4-1.2c0-.4.2-.8.2-1.2,0-.4,0-.7,0-.9v-1.7h0c-.5.7-1.1,1.3-1.8,1.7-.8.4-1.7.6-2.7.6s-1.7-.2-2.5-.5c-.8-.3-1.5-.8-2-1.3s-1-1.2-1.4-2-.5-1.5-.5-2.4.2-1.6.5-2.4.8-1.4,1.4-2,1.3-1,2-1.3c.8-.3,1.6-.5,2.5-.5s1.9.2,2.7.6c.8.4,1.4,1,1.8,1.7h0v-2h1.6v11.2ZM134.7,76.5c0-.7-.1-1.3-.4-1.9-.3-.6-.6-1.1-1-1.5-.4-.4-.9-.8-1.5-1s-1.2-.4-1.9-.4-1.3.1-1.9.4c-.6.3-1.1.6-1.5,1-.4.4-.8.9-1,1.5-.3.6-.4,1.2-.4,1.9s.1,1.3.4,1.9c.3.6.6,1.1,1,1.5.4.4.9.8,1.5,1,.6.3,1.2.4,1.9.4s1.3-.1,1.9-.4c.6-.3,1.1-.6,1.5-1,.4-.4.8-.9,1-1.5s.4-1.2.4-1.9Z"/>
    <path class="st3" d="M142.1,81.6c0-.3.1-.6.4-.9.2-.2.5-.4.9-.4s.6.1.9.4.4.5.4.9-.1.6-.4.9c-.2.2-.5.4-.9.4s-.6-.1-.9-.4c-.2-.2-.4-.5-.4-.9Z"/>
  </g>
  <rect class="st3" x="166" y="70" width="9" height="9"/>
  <path class="st3" d="M14.3,14.6H6.3c-.3,0-.6.3-.6.6v25.7c0,.3.3.6.6.6h8c.3,0,.6-.3.6-.6V15.2c0-.3-.3-.6-.6-.6ZM13.7,40.3h-6.8V15.8h6.7c0,0,0,24.5,0,24.5Z"/>
  <path class="st3" d="M39.4,6.7H6.3c-.3,0-.6.2-.6.6v8c0,.3.3.6.6.6h33.1c.3,0,.6-.3.6-.6V7.3c0-.4-.3-.6-.6-.6ZM6.9,14.6v-6.7h31.8v6.7H6.9Z"/>
  <path class="st3" d="M10,6.7c-.3,0-.6.3-.6.6v3.1c0,.3.3.6.6.6s.6-.3.6-.6v-3.1c0-.4-.3-.6-.6-.6Z"/>
  <path class="st3" d="M13.7,6.7c-.3,0-.6.3-.6.6v3.1c0,.3.3.6.6.6s.6-.3.6-.6v-3.1c0-.4-.3-.6-.6-.6Z"/>
  <path class="st3" d="M17.3,6.7c-.3,0-.6.3-.6.6v3.1c0,.3.3.6.6.6s.6-.3.6-.6v-3.1c.1-.4-.2-.6-.6-.6Z"/>
  <path class="st3" d="M21,6.7c-.3,0-.6.3-.6.6v3.1c0,.3.3.6.6.6s.6-.3.6-.6v-3.1c0-.4-.2-.6-.6-.6Z"/>
  <path class="st2" d="M24.7,6.7c-.3,0-.6.3-.6.6v3.1c0,.3.3.6.6.6s.6-.3.6-.6v-3.1c0-.4-.3-.6-.6-.6Z"/>
  <path class="st2" d="M28.4,6.7c-.3,0-.6.3-.6.6v3.1c0,.3.3.6.6.6s.6-.3.6-.6v-3.1c0-.4-.3-.6-.6-.6Z"/>
  <path class="st2" d="M32,6.7c-.3,0-.6.3-.6.6v3.1c0,.3.3.6.6.6s.6-.3.6-.6v-3.1c.1-.4-.2-.6-.6-.6Z"/>
  <path class="st2" d="M35.7,6.7c-.3,0-.6.3-.6.6v3.1c0,.3.3.6.6.6s.6-.3.6-.6v-3.1c0-.4-.2-.6-.6-.6Z"/>
  <path class="st2" d="M10,18.3h-3.1c-.3,0-.6.3-.6.6s.3.6.6.6h3.1c.3,0,.6-.3.6-.6s-.3-.6-.6-.6Z"/>
  <path class="st2" d="M10,22h-3.1c-.3,0-.6.3-.6.6s.3.6.6.6h3.1c.3,0,.6-.3.6-.6s-.3-.6-.6-.6Z"/>
  <path class="st2" d="M10,25.6h-3.1c-.3,0-.6.3-.6.6s.3.6.6.6h3.1c.3,0,.6-.3.6-.6s-.3-.6-.6-.6Z"/>
  <path class="st2" d="M10,29.3h-3.1c-.3,0-.6.3-.6.6s.3.6.6.6h3.1c.3,0,.6-.3.6-.6s-.3-.6-.6-.6Z"/>
  <path class="st2" d="M10,33h-3.1c-.3,0-.6.3-.6.6s.3.6.6.6h3.1c.3,0,.6-.3.6-.6s-.3-.6-.6-.6Z"/>
  <path class="st2" d="M10,36.7h-3.1c-.3,0-.6.3-.6.6s.3.6.6.6h3.1c.3,0,.6-.3.6-.6s-.3-.6-.6-.6Z"/>
</svg>