<?xml version="1.0" encoding="utf-8"?>
<!-- Generator: Adobe Illustrator 29.4.0, SVG Export Plug-In . SVG Version: 9.03 Build 0)  -->
<svg version="1.0" id="Ebene_1" xmlns="http://www.w3.org/2000/svg" xmlns:xlink="http://www.w3.org/1999/xlink" x="0px" y="0px"
	 viewBox="0 0 311 144" style="enable-background:new 0 0 311 144;" xml:space="preserve">
<style type="text/css">
	.st0{clip-path:url(#SVGID_00000182526689108509775280000007735559954066934960_);}
	.st1{fill-rule:evenodd;clip-rule:evenodd;fill:#D39822;}
	.st2{clip-path:url(#SVGID_00000166645086733322354480000012279961048579297181_);}
	.st3{fill:#302D2D;}
</style>
<g>
	<defs>
		<rect id="SVGID_1_" x="48.2" y="4.4" width="180.8" height="61"/>
	</defs>
	<clipPath id="SVGID_00000130637304642435732260000013769299682818874514_">
		<use xlink:href="#SVGID_1_"  style="overflow:visible;"/>
	</clipPath>
	<g style="clip-path:url(#SVGID_00000130637304642435732260000013769299682818874514_);">
		<path class="st1" d="M51.4,65.2l87.2-56.4l87.2,56.4c0.9,0.6,2.1,0.3,2.7-0.6c0.6-0.9,0.3-2.1-0.6-2.7L139.6,4.8
			c-0.6-0.4-1.5-0.4-2.1,0L49.3,61.9c-0.9,0.6-1.2,1.8-0.6,2.7C49.3,65.5,50.5,65.8,51.4,65.2z"/>
	</g>
</g>
<g>
	<defs>
		<rect id="SVGID_00000131342531171211625770000002347536767251060647_" x="157" y="4.7" width="105.2" height="60"/>
	</defs>
	<clipPath id="SVGID_00000111880323486631937050000003877026555515167364_">
		<use xlink:href="#SVGID_00000131342531171211625770000002347536767251060647_"  style="overflow:visible;"/>
	</clipPath>
	<g style="clip-path:url(#SVGID_00000111880323486631937050000003877026555515167364_);">
		<path class="st1" d="M160.1,20.3l16-10.4L258.5,64c0.9,0.6,2.1,0.3,2.7-0.6c0.6-0.9,0.3-2.1-0.6-2.7L177.2,6
			c-0.6-0.4-1.5-0.4-2.1,0c0,0-7.1,4.6-17.1,11.1c-0.9,0.6-1.2,1.8-0.6,2.7C158,20.7,159.2,20.9,160.1,20.3z"/>
	</g>
</g>
<path class="st1" d="M98.8,32.8V18.1c0-1.1-0.9-1.9-1.9-1.9H80.6c-1.1,0-1.9,0.9-1.9,1.9V44c0,1.1,0.9,1.9,1.9,1.9s1.9-0.9,1.9-1.9
	V20h12.3v12.8c0,1.1,0.9,1.9,1.9,1.9C97.9,34.7,98.8,33.9,98.8,32.8z"/>
<g>
	<g transform="translate(73.334591, 212.758457)">
		<g>
			<path class="st3" d="M-53.6-107.1L-60-118h-4.2v10.9h-3.5v-26.6h8.6c2,0,3.7,0.3,5.1,1c1.4,0.7,2.4,1.6,3.1,2.8
				c0.7,1.2,1,2.5,1,4c0,1.8-0.5,3.5-1.6,4.9c-1.1,1.4-2.6,2.3-4.8,2.8l6.7,11.1H-53.6z M-64.1-120.7h5.1c1.9,0,3.3-0.5,4.2-1.4
				c0.9-0.9,1.4-2.2,1.4-3.7c0-1.6-0.5-2.8-1.4-3.6c-0.9-0.9-2.3-1.3-4.2-1.3h-5.1V-120.7z"/>
		</g>
	</g>
</g>
<g>
	<g transform="translate(103.51938, 212.758457)">
		<g>
			<path class="st3" d="M-54.2-133.7v16.8c0,2.4,0.6,4.1,1.7,5.3c1.2,1.1,2.8,1.7,4.8,1.7c2,0,3.6-0.6,4.8-1.7
				c1.2-1.1,1.8-2.9,1.8-5.3v-16.8h3.5v16.8c0,2.2-0.5,4.1-1.4,5.6c-0.9,1.5-2.1,2.6-3.6,3.4c-1.5,0.7-3.2,1.1-5.1,1.1
				c-1.9,0-3.6-0.4-5.1-1.1c-1.5-0.7-2.7-1.9-3.6-3.4c-0.9-1.5-1.3-3.4-1.3-5.6v-16.8H-54.2z M-50.7-136.3c-0.6,0-1-0.2-1.4-0.6
				c-0.4-0.4-0.6-0.9-0.6-1.4c0-0.6,0.2-1,0.6-1.4c0.4-0.4,0.9-0.6,1.4-0.6c0.5,0,1,0.2,1.4,0.6c0.4,0.4,0.6,0.9,0.6,1.4
				c0,0.6-0.2,1-0.6,1.4C-49.7-136.5-50.2-136.3-50.7-136.3z M-44.5-136.3c-0.6,0-1-0.2-1.4-0.6c-0.4-0.4-0.6-0.9-0.6-1.4
				c0-0.6,0.2-1,0.6-1.4c0.4-0.4,0.8-0.6,1.4-0.6c0.6,0,1,0.2,1.4,0.6c0.4,0.4,0.6,0.9,0.6,1.4c0,0.6-0.2,1-0.6,1.4
				C-43.5-136.5-44-136.3-44.5-136.3z"/>
		</g>
	</g>
</g>
<g>
	<g transform="translate(135.620836, 212.758457)">
		<g>
			<path class="st3" d="M-30.5-133.7v2.8h-7.2v23.8h-3.5v-23.8h-7.3v-2.8H-30.5z"/>
		</g>
	</g>
</g>
<g>
	<g transform="translate(163.888957, 212.758457)">
		<g>
			<path class="st3" d="M-21.1-133.7v2.8h-7.2v23.8h-3.5v-23.8h-7.3v-2.8H-21.1z"/>
		</g>
	</g>
</g>
<g>
	<g transform="translate(192.157078, 212.758457)">
		<g>
			<path class="st3" d="M-7.9-126c-0.7-1.6-1.8-2.8-3.2-3.6c-1.4-0.9-3-1.3-4.9-1.3c-1.9,0-3.5,0.4-5,1.3c-1.5,0.8-2.7,2.1-3.5,3.7
				c-0.8,1.6-1.3,3.4-1.3,5.5s0.4,3.9,1.3,5.5c0.9,1.6,2,2.8,3.5,3.6c1.5,0.8,3.2,1.3,5,1.3c2.6,0,4.7-0.8,6.4-2.3
				c1.7-1.6,2.7-3.7,2.9-6.3h-10.6v-2.8h14.3v2.7c-0.2,2.2-0.9,4.2-2.1,6c-1.2,1.8-2.7,3.3-4.6,4.3c-1.9,1.1-4,1.6-6.4,1.6
				c-2.5,0-4.7-0.6-6.8-1.7c-2-1.2-3.6-2.8-4.8-4.8c-1.2-2.1-1.8-4.4-1.8-7c0-2.6,0.6-4.9,1.8-7c1.2-2.1,2.8-3.7,4.8-4.8
				c2-1.2,4.3-1.8,6.8-1.8c2.8,0,5.3,0.7,7.5,2.1c2.2,1.4,3.8,3.4,4.8,5.9H-7.9z"/>
		</g>
	</g>
</g>
<g>
	<g transform="translate(227.205071, 212.758457)">
		<g>
			<path class="st3" d="M-12.8-130.9v8.9h9.7v2.9h-9.7v9.2H-2v2.9h-14.3v-26.6H-2v2.9H-12.8z"/>
		</g>
	</g>
</g>
<g>
	<g transform="translate(254.672183, 212.758457)">
		<g>
			<path class="st3" d="M6.8-107.1L0.5-118h-4.2v10.9h-3.5v-26.6h8.6c2,0,3.7,0.3,5.1,1c1.4,0.7,2.4,1.6,3.1,2.8c0.7,1.2,1,2.5,1,4
				c0,1.8-0.5,3.5-1.6,4.9c-1.1,1.4-2.6,2.3-4.7,2.8l6.7,11.1H6.8z M-3.7-120.7h5.1c1.9,0,3.3-0.5,4.2-1.4c0.9-0.9,1.4-2.2,1.4-3.7
				c0-1.6-0.5-2.8-1.4-3.6c-0.9-0.9-2.3-1.3-4.2-1.3h-5.1V-120.7z"/>
		</g>
	</g>
</g>
<g>
	<g transform="translate(284.856964, 212.758457)">
		<g>
			<path class="st3" d="M11.3-106.8c-1.8,0-3.3-0.3-4.7-0.9c-1.4-0.6-2.5-1.5-3.2-2.6c-0.8-1.1-1.2-2.4-1.2-3.9h3.7
				c0.1,1.2,0.6,2.3,1.5,3.2c0.9,0.8,2.2,1.3,4,1.3c1.7,0,2.9-0.4,3.9-1.2c1-0.8,1.4-1.9,1.4-3.2c0-1-0.3-1.8-0.9-2.5
				c-0.6-0.6-1.2-1.1-2.1-1.5c-0.8-0.3-2-0.7-3.4-1.1c-1.8-0.5-3.2-0.9-4.2-1.4c-1.1-0.5-2-1.2-2.7-2.1c-0.8-1-1.1-2.3-1.1-4
				c0-1.5,0.4-2.7,1.1-3.9c0.7-1.1,1.8-2,3.1-2.6c1.3-0.6,2.9-0.9,4.6-0.9c2.5,0,4.5,0.6,6.1,1.9c1.6,1.2,2.5,2.9,2.7,5h-3.8
				c-0.1-1-0.7-1.9-1.6-2.7c-0.9-0.8-2.2-1.2-3.7-1.2c-1.4,0-2.6,0.4-3.5,1.1s-1.4,1.8-1.4,3.1c0,1,0.3,1.8,0.8,2.4
				c0.6,0.6,1.2,1.1,2,1.4c0.8,0.3,1.9,0.7,3.4,1.1c1.8,0.5,3.2,1,4.2,1.4c1.1,0.5,2,1.2,2.7,2.2c0.8,1,1.1,2.3,1.1,4
				c0,1.3-0.3,2.5-1,3.7c-0.7,1.1-1.7,2.1-3.1,2.8C14.7-107.2,13.1-106.8,11.3-106.8z"/>
		</g>
	</g>
</g>
<g>
	<g transform="translate(124.969352, 234.780829)">
		<g>
			<path class="st3" d="M-50.6-111.3v11.6h-1.5v-11.6H-50.6z"/>
		</g>
	</g>
</g>
<g>
	<g transform="translate(134.312091, 234.780829)">
		<g>
			<path class="st3" d="M-37.2-111.2v11.5h-1.5v-8.6l-3.8,8.6h-1.1l-3.8-8.6v8.6H-49v-11.5h1.6l4.2,9.5l4.2-9.5H-37.2z"/>
		</g>
	</g>
</g>
<g>
	<g transform="translate(151.303673, 234.780829)">
		<g>
			<path class="st3" d="M-31.6-111.2v11.5h-1.5v-8.6l-3.8,8.6h-1.1l-3.8-8.6v8.6h-1.5v-11.5h1.6l4.2,9.5l4.3-9.5H-31.6z"/>
		</g>
	</g>
</g>
<g>
	<g transform="translate(168.295257, 234.780829)">
		<g>
			<path class="st3" d="M-32.4-99.6c-1.1,0-2.1-0.2-2.9-0.8c-0.9-0.5-1.6-1.2-2.1-2.1c-0.5-0.9-0.8-1.9-0.8-3s0.3-2.1,0.8-3
				c0.5-0.9,1.2-1.6,2.1-2.1c0.9-0.5,1.9-0.8,2.9-0.8c1.1,0,2.1,0.2,2.9,0.8c0.9,0.5,1.6,1.2,2.1,2.1c0.5,0.9,0.8,1.9,0.8,3
				c0,1.1-0.3,2.2-0.8,3.1c-0.5,0.9-1.2,1.6-2.1,2.1C-30.3-99.9-31.3-99.6-32.4-99.6z M-32.4-100.9c0.8,0,1.5-0.2,2.2-0.6
				c0.7-0.4,1.2-0.9,1.5-1.6c0.4-0.7,0.6-1.5,0.6-2.4c0-0.9-0.2-1.7-0.6-2.4c-0.4-0.7-0.9-1.2-1.5-1.6c-0.6-0.4-1.4-0.6-2.2-0.6
				c-0.8,0-1.6,0.2-2.2,0.6c-0.6,0.4-1.1,0.9-1.5,1.6c-0.4,0.7-0.6,1.5-0.6,2.4c0,0.9,0.2,1.7,0.6,2.4c0.4,0.7,0.9,1.2,1.5,1.6
				C-33.9-101.1-33.2-100.9-32.4-100.9z"/>
		</g>
	</g>
</g>
<g>
	<g transform="translate(184.35404, 234.780829)">
		<g>
			<path class="st3" d="M-26.5-105.7c0.4,0.1,0.8,0.2,1.1,0.5c0.3,0.3,0.6,0.6,0.8,1c0.2,0.4,0.3,0.8,0.3,1.3c0,0.6-0.2,1.1-0.5,1.6
				c-0.3,0.5-0.7,0.8-1.3,1.1c-0.6,0.3-1.2,0.4-2,0.4h-4.3v-11.6h4.1c0.8,0,1.5,0.1,2,0.4c0.6,0.3,1,0.6,1.2,1.1
				c0.3,0.4,0.4,0.9,0.4,1.5c0,0.7-0.2,1.2-0.6,1.7C-25.4-106.2-25.9-105.9-26.5-105.7z M-30.8-106.3h2.5c0.7,0,1.2-0.2,1.6-0.5
				c0.4-0.3,0.6-0.8,0.6-1.4s-0.2-1-0.6-1.4c-0.4-0.3-0.9-0.5-1.7-0.5h-2.5V-106.3z M-28.1-101c0.8,0,1.3-0.2,1.8-0.5
				c0.4-0.4,0.6-0.9,0.6-1.5c0-0.6-0.2-1.1-0.7-1.5c-0.4-0.4-1-0.6-1.8-0.6h-2.6v4.1H-28.1z"/>
		</g>
	</g>
</g>
<g>
	<g transform="translate(198.261202, 234.780829)">
		<g>
			<path class="st3" d="M-26.1-111.3v11.6h-1.5v-11.6H-26.1z"/>
		</g>
	</g>
</g>
<g>
	<g transform="translate(207.60394, 234.780829)">
		<g>
			<path class="st3" d="M-23-101h4v1.2h-5.6v-11.6h1.5V-101z"/>
		</g>
	</g>
</g>
<g>
	<g transform="translate(219.259994, 234.780829)">
		<g>
			<path class="st3" d="M-19.1-111.3v11.6h-1.5v-11.6H-19.1z"/>
		</g>
	</g>
</g>
<g>
	<g transform="translate(228.602732, 234.780829)">
		<g>
			<path class="st3" d="M-16-110.1v3.9h4.2v1.2H-16v4h4.7v1.2h-6.2v-11.6h6.2v1.2H-16z"/>
		</g>
	</g>
</g>
<g>
	<g transform="translate(241.266179, 234.780829)">
		<g>
			<path class="st3" d="M-4.2-99.7h-1.5l-6.1-9.2v9.2h-1.5v-11.6h1.5l6.1,9.2v-9.2h1.5V-99.7z"/>
		</g>
	</g>
</g>
</svg>
