<?xml version="1.0" encoding="utf-8"?>
<!-- Generator: Adobe Illustrator 27.5.0, SVG Export Plug-In . SVG Version: 6.00 Build 0)  -->
<svg version="1.1" id="Ebene_1" xmlns="http://www.w3.org/2000/svg" xmlns:xlink="http://www.w3.org/1999/xlink" x="0px" y="0px"
	 viewBox="0 0 443.2 81" style="enable-background:new 0 0 443.2 81;" xml:space="preserve">
<style type="text/css">
	.st0{fill:#1D1D1B;}
</style>
<g>
	<path class="st0" d="M0,0v81h81V0L0,0L0,0z M43.9,3.1v51.5l-9.2,5V26.5l-13.8,3.8v36.8L3.1,76.9V3.1L43.9,3.1L43.9,3.1z M31.6,60.7
		H24v-28l7.6-2.1V60.7z M77.9,77.9H7.6L24,69v-5.2h9.5l12.3-6.7h32L77.9,77.9L77.9,77.9z M47,54V3.1h30.9V54H47z"/>
	<g>
		<path class="st0" d="M103.2,18.5c0.9,0.6,2.2,1,3.6,1c2,0,3.2-1.1,3.2-2.6c0-1.4-0.8-2.3-2.9-3.1c-2.5-0.9-4.1-2.2-4.1-4.4
			c0-2.4,2-4.2,5-4.2c1.6,0,2.7,0.4,3.4,0.8l-0.6,1.6c-0.5-0.3-1.5-0.7-2.9-0.7c-2.1,0-2.9,1.2-2.9,2.3c0,1.4,0.9,2.1,3.1,3
			c2.6,1,3.9,2.3,3.9,4.5c0,2.4-1.8,4.4-5.4,4.4c-1.5,0-3.1-0.4-3.9-1L103.2,18.5z"/>
		<path class="st0" d="M121.7,16.1l-1.6,4.8h-2.1l5.2-15.4h2.4l5.2,15.4h-2.1l-1.6-4.8H121.7z M126.8,14.5l-1.5-4.4
			c-0.3-1-0.6-1.9-0.8-2.8h-0.1c-0.2,0.9-0.5,1.9-0.8,2.8l-1.5,4.4H126.8z"/>
		<path class="st0" d="M148.2,20.4c-0.7,0.4-2.2,0.7-4.1,0.7c-4.3,0-7.6-2.7-7.6-7.8c0-4.8,3.3-8.1,8-8.1c1.9,0,3.1,0.4,3.6,0.7
			l-0.5,1.6c-0.8-0.4-1.8-0.6-3.1-0.6c-3.6,0-6,2.3-6,6.3c0,3.8,2.2,6.2,5.9,6.2c1.2,0,2.4-0.2,3.2-0.6L148.2,20.4z"/>
		<path class="st0" d="M157.2,5.5V12h7.4V5.5h2v15.4h-2v-7.2h-7.4v7.2h-2V5.5H157.2z"/>
		<path class="st0" d="M178,20.9l-5-15.4h2.1l2.4,7.6c0.7,2.1,1.2,3.9,1.6,5.7h0.1c0.4-1.8,1.1-3.7,1.8-5.7l2.6-7.6h2.1l-5.5,15.4
			L178,20.9L178,20.9z"/>
		<path class="st0" d="M199.9,13.7h-6v5.5h6.6v1.7h-8.6V5.5h8.3v1.7h-6.3v4.9h6V13.7z"/>
		<path class="st0" d="M207.7,5.8c1-0.2,2.4-0.3,3.8-0.3c2.1,0,3.5,0.4,4.4,1.2c0.8,0.7,1.2,1.7,1.2,2.9c0,2-1.3,3.4-2.9,3.9v0.1
			c1.2,0.4,1.9,1.5,2.3,3.1c0.5,2.1,0.9,3.6,1.2,4.2h-2.1c-0.2-0.4-0.6-1.8-1-3.7c-0.5-2.1-1.3-2.9-3.1-3h-1.9v6.6h-2L207.7,5.8
			L207.7,5.8z M209.7,12.7h2c2.1,0,3.5-1.2,3.5-2.9c0-2-1.4-2.9-3.5-2.9c-1,0-1.6,0.1-2,0.2V12.7z"/>
		<path class="st0" d="M224.2,18.5c0.9,0.6,2.2,1,3.6,1c2,0,3.2-1.1,3.2-2.6c0-1.4-0.8-2.3-2.9-3.1c-2.5-0.9-4.1-2.2-4.1-4.4
			c0-2.4,2-4.2,5-4.2c1.6,0,2.7,0.4,3.4,0.8l-0.5,1.6c-0.5-0.3-1.5-0.7-2.9-0.7c-2.1,0-2.9,1.2-2.9,2.3c0,1.4,0.9,2.1,3.1,3
			c2.6,1,3.9,2.3,3.9,4.5c0,2.4-1.8,4.4-5.4,4.4c-1.5,0-3.1-0.4-3.9-1L224.2,18.5z"/>
		<path class="st0" d="M243.2,7.2h-4.7V5.5h11.4v1.7h-4.7v13.7h-2L243.2,7.2L243.2,7.2z"/>
		<path class="st0" d="M257,16.1l-1.6,4.8h-2l5.2-15.4h2.4l5.2,15.4h-2.1l-1.6-4.8H257z M256.6,3.4c0-0.6,0.5-1.1,1.1-1.1
			s1.1,0.5,1.1,1.1s-0.4,1.2-1.1,1.2C257.1,4.5,256.6,4,256.6,3.4z M262,14.5l-1.5-4.4c-0.3-1-0.6-1.9-0.8-2.8h0
			c-0.2,0.9-0.5,1.9-0.8,2.8l-1.5,4.4H262z M260.8,3.4c0-0.6,0.5-1.1,1.1-1.1c0.6,0,1.1,0.5,1.1,1.1s-0.4,1.2-1.1,1.2
			C261.3,4.5,260.8,4,260.8,3.4z"/>
		<path class="st0" d="M273,20.9V5.5h2.2l4.9,7.8c1.1,1.8,2,3.4,2.8,5l0,0c-0.2-2.1-0.2-3.9-0.2-6.3V5.5h1.9v15.4h-2l-4.9-7.8
			c-1.1-1.7-2.1-3.5-2.9-5.1l-0.1,0c0.1,1.9,0.2,3.8,0.2,6.3v6.6L273,20.9L273,20.9z"/>
		<path class="st0" d="M292.6,5.8c1.2-0.2,2.6-0.3,4.2-0.3c2.9,0,4.9,0.7,6.2,1.9c1.4,1.2,2.2,3,2.2,5.5c0,2.5-0.8,4.6-2.2,6
			c-1.4,1.4-3.8,2.2-6.8,2.2c-1.4,0-2.6-0.1-3.6-0.2L292.6,5.8L292.6,5.8z M294.6,19.3c0.5,0.1,1.2,0.1,2,0.1c4.2,0,6.5-2.4,6.5-6.5
			c0-3.6-2-5.9-6.2-5.9c-1,0-1.8,0.1-2.3,0.2L294.6,19.3L294.6,19.3z"/>
		<path class="st0" d="M314.3,5.5v15.4h-2V5.5H314.3z"/>
		<path class="st0" d="M334,20.2c-0.9,0.3-2.6,0.8-4.7,0.8c-2.3,0-4.2-0.6-5.7-2c-1.3-1.3-2.1-3.3-2.1-5.7c0-4.6,3.2-7.9,8.3-7.9
			c1.8,0,3.2,0.4,3.8,0.7l-0.5,1.6c-0.8-0.4-1.9-0.7-3.4-0.7c-3.7,0-6.2,2.3-6.2,6.2c0,3.9,2.4,6.2,5.9,6.2c1.3,0,2.2-0.2,2.6-0.4
			v-4.6H329v-1.6h5.1L334,20.2L334,20.2z"/>
		<path class="st0" d="M349.6,13.7h-6v5.5h6.6v1.7h-8.6V5.5h8.3v1.7h-6.3v4.9h6V13.7z"/>
		<path class="st0" d="M357.4,20.9V5.5h2.2l4.9,7.8c1.1,1.8,2,3.4,2.8,5l0,0c-0.2-2.1-0.2-3.9-0.2-6.3V5.5h1.9v15.4h-2l-4.9-7.8
			c-1.1-1.7-2.1-3.5-2.9-5.1l-0.1,0c0.1,1.9,0.2,3.8,0.2,6.3v6.6L357.4,20.9L357.4,20.9z"/>
		<path class="st0" d="M377,5.8c0.9-0.2,2.2-0.3,3.6-0.3c2,0,3.3,0.3,4.2,1.1c0.8,0.6,1.3,1.5,1.3,2.7c0,1.5-1,2.8-2.6,3.4v0
			c1.5,0.4,3.2,1.6,3.2,3.9c0,1.3-0.5,2.3-1.3,3.1c-1.1,1-2.8,1.4-5.3,1.4c-1.4,0-2.4-0.1-3.1-0.2L377,5.8L377,5.8z M378.9,12h1.8
			c2.1,0,3.3-1.1,3.3-2.6c0-1.8-1.4-2.5-3.4-2.5c-0.9,0-1.4,0.1-1.8,0.1L378.9,12L378.9,12z M378.9,19.4c0.4,0.1,1,0.1,1.7,0.1
			c2,0,3.9-0.8,3.9-3c0-2.1-1.8-3-4-3h-1.6L378.9,19.4L378.9,19.4z"/>
		<path class="st0" d="M395.9,5.5v9.1c0,3.4,1.5,4.9,3.6,4.9c2.3,0,3.7-1.5,3.7-4.9V5.5h2v9c0,4.7-2.5,6.6-5.8,6.6
			c-3.1,0-5.5-1.8-5.5-6.6V5.5H395.9z M396.3,3.3c0-0.6,0.5-1.1,1.1-1.1c0.6,0,1.1,0.5,1.1,1.1s-0.5,1.2-1.1,1.2
			C396.8,4.5,396.3,4,396.3,3.3z M400.6,3.3c0-0.6,0.5-1.1,1.1-1.1c0.6,0,1.1,0.5,1.1,1.1s-0.4,1.2-1.1,1.2
			C401,4.5,400.6,4,400.6,3.3z"/>
		<path class="st0" d="M413.2,5.8c1-0.2,2.4-0.3,3.8-0.3c2.1,0,3.5,0.4,4.4,1.2c0.8,0.7,1.2,1.7,1.2,2.9c0,2-1.3,3.4-2.9,3.9v0.1
			c1.2,0.4,1.9,1.5,2.3,3.1c0.5,2.1,0.9,3.6,1.2,4.2h-2c-0.2-0.4-0.6-1.8-1-3.7c-0.5-2.1-1.3-2.9-3.1-3h-1.9v6.6h-2L413.2,5.8
			L413.2,5.8z M415.2,12.7h2c2.1,0,3.5-1.2,3.5-2.9c0-2-1.4-2.9-3.5-2.9c-1,0-1.6,0.1-2,0.2V12.7z"/>
		<path class="st0" d="M443.2,13.1c0,5.3-3.2,8.1-7.1,8.1c-4.1,0-6.9-3.1-6.9-7.8c0-4.9,3-8.1,7.1-8.1
			C440.5,5.3,443.2,8.5,443.2,13.1z M431.3,13.3c0,3.3,1.8,6.2,4.9,6.2c3.1,0,4.9-2.9,4.9-6.4c0-3.1-1.6-6.2-4.9-6.2
			C432.9,6.9,431.3,9.9,431.3,13.3z"/>
		<path class="st0" d="M106.8,48.3l-4.9-15.4h3.8l1.9,6.5c0.5,1.8,1,3.6,1.4,5.5h0.1c0.4-1.9,0.9-3.7,1.4-5.4l2-6.6h3.7l-5.2,15.4
			H106.8z"/>
		<path class="st0" d="M136.2,40.4c0,5-3.1,8.1-7.5,8.1c-4.6,0-7.2-3.4-7.2-7.8c0-4.6,2.9-8,7.5-8C133.6,32.7,136.2,36.2,136.2,40.4
			z M125.1,40.6c0,3,1.4,5.1,3.7,5.1c2.4,0,3.7-2.2,3.7-5.2c0-2.8-1.3-5.1-3.7-5.1C126.4,35.4,125.1,37.6,125.1,40.6z"/>
		<path class="st0" d="M155.8,47.6c-1.1,0.4-3.1,0.9-5.1,0.9c-2.8,0-4.8-0.7-6.2-2.1c-1.4-1.3-2.2-3.3-2.2-5.6c0-5.1,3.7-8,8.8-8
			c2,0,3.5,0.4,4.3,0.8l-0.7,2.8c-0.8-0.4-1.9-0.7-3.6-0.7c-2.9,0-5.1,1.6-5.1,5c0,3.2,2,5,4.8,5c0.8,0,1.4-0.1,1.7-0.2v-3.2h-2.4
			v-2.7h5.7V47.6z"/>
		<path class="st0" d="M172.3,41.8h-5.7v3.6h6.3v2.9h-9.8V32.9h9.5v2.9h-6V39h5.6L172.3,41.8L172.3,41.8z"/>
		<path class="st0" d="M179.9,32.9h3.5v12.4h6.1v2.9h-9.6L179.9,32.9L179.9,32.9z"/>
		<path class="st0" d="M215,48.3c-0.3-0.3-0.6-0.7-1-1.1c-1,0.8-2.4,1.3-4.2,1.3c-3.7,0-5.4-2.2-5.4-4.4c0-2,1.2-3.5,2.9-4.4v-0.1
			c-0.7-0.7-1.2-1.9-1.2-3c0-1.9,1.5-4.1,4.6-4.1c2.4,0,4.2,1.4,4.2,3.6c0,1.6-0.9,2.9-3,3.9l0,0.1c0.9,1,1.8,2.1,2.6,2.9
			c0.6-1,1.1-2.4,1.3-3.7h3.1c-0.4,2.3-1.2,4.3-2.6,5.8c0.9,1,1.8,2,2.7,3L215,48.3L215,48.3z M212.4,45.2c-1-1-2.2-2.4-3.5-3.8
			c-0.6,0.5-1.2,1.1-1.2,2.1c0,1.3,1,2.4,2.6,2.4C211.2,46,211.9,45.7,212.4,45.2z M209.3,36.4c0,0.8,0.4,1.5,1.1,2.2
			c1.1-0.8,1.7-1.4,1.7-2.3c0-0.7-0.4-1.5-1.3-1.5C209.8,34.8,209.3,35.6,209.3,36.4z"/>
		<path class="st0" d="M234.4,32.9h3.4v6.8h0.1c0.3-0.6,0.7-1.1,1-1.7l3.5-5.1h4.3l-5.1,6.5l5.4,8.8h-4.1l-3.8-6.6l-1.3,1.6v5h-3.4
			V32.9z"/>
		<path class="st0" d="M266.3,40.4c0,5-3,8.1-7.5,8.1c-4.6,0-7.2-3.4-7.2-7.8c0-4.6,2.9-8,7.5-8C263.7,32.7,266.3,36.2,266.3,40.4z
			 M255.2,40.6c0,3,1.4,5.1,3.7,5.1c2.4,0,3.7-2.2,3.7-5.2c0-2.8-1.3-5.1-3.7-5.1C256.6,35.4,255.2,37.6,255.2,40.6z"/>
		<path class="st0" d="M273.1,32.9h3.5v12.4h6.1v2.9h-9.6L273.1,32.9L273.1,32.9z"/>
		<path class="st0" d="M289.3,32.9h3.5v12.4h6.1v2.9h-9.6L289.3,32.9L289.3,32.9z"/>
		<path class="st0" d="M314.7,41.8H309v3.6h6.3v2.9h-9.8V32.9h9.5v2.9h-6V39h5.6L314.7,41.8L314.7,41.8z"/>
		<path class="st0" d="M335.1,47.6c-1.1,0.4-3.1,0.9-5.1,0.9c-2.8,0-4.8-0.7-6.2-2.1c-1.4-1.3-2.2-3.3-2.2-5.6c0-5.1,3.7-8,8.8-8
			c2,0,3.5,0.4,4.3,0.8l-0.7,2.8c-0.8-0.4-1.9-0.7-3.6-0.7c-2.9,0-5.1,1.6-5.1,5c0,3.2,2,5,4.8,5c0.8,0,1.4-0.1,1.7-0.2v-3.2h-2.4
			v-2.7h5.7L335.1,47.6L335.1,47.6z"/>
		<path class="st0" d="M351.5,41.8h-5.6v3.6h6.3v2.9h-9.8V32.9h9.5v2.9h-6V39h5.6L351.5,41.8L351.5,41.8z"/>
		<path class="st0" d="M359.1,48.3V32.9h4.1l3.2,5.6c0.9,1.6,1.8,3.5,2.5,5.3h0.1c-0.2-2-0.3-4.1-0.3-6.4v-4.5h3.2v15.4h-3.6
			l-3.3-5.9c-0.9-1.6-1.9-3.6-2.7-5.4l-0.1,0c0.1,2,0.1,4.2,0.1,6.7v4.6L359.1,48.3L359.1,48.3z"/>
		<path class="st0" d="M116,74.9c-1.1,0.4-3.1,0.9-5.1,0.9c-2.8,0-4.8-0.7-6.2-2.1c-1.4-1.3-2.2-3.3-2.2-5.6c0-5.1,3.7-8,8.8-8
			c2,0,3.5,0.4,4.3,0.8l-0.7,2.8c-0.8-0.4-1.9-0.7-3.6-0.7c-2.9,0-5.1,1.6-5.1,5c0,3.2,2,5,4.8,5c0.8,0,1.4-0.1,1.7-0.2v-3.2h-2.4
			v-2.7h5.7V74.9z"/>
		<path class="st0" d="M136.3,69.7c-0.1-1.9-0.1-4.1-0.1-6.3h-0.1c-0.5,2-1.1,4.1-1.7,6l-1.9,6h-2.7l-1.6-6c-0.5-1.8-1-4-1.4-6h-0.1
			c-0.1,2.1-0.2,4.4-0.3,6.4l-0.3,5.8H123l1-15.4h4.6l1.5,5.1c0.5,1.8,1,3.7,1.3,5.5h0.1c0.4-1.8,1-3.8,1.5-5.5l1.6-5.1h4.5
			l0.8,15.4h-3.4L136.3,69.7z"/>
		<path class="st0" d="M147.2,60.5c0.9-0.2,2.8-0.3,4.5-0.3c2.1,0,3.4,0.2,4.5,0.9c1.1,0.6,1.9,1.6,1.9,3c0,1.4-0.8,2.6-2.5,3.3v0
			c1.8,0.5,3.1,1.8,3.1,3.8c0,1.4-0.6,2.5-1.6,3.3c-1.1,0.9-3,1.4-6,1.4c-1.7,0-3-0.1-3.8-0.2L147.2,60.5L147.2,60.5z M150.6,66.4
			h1.1c1.8,0,2.8-0.8,2.8-1.9c0-1.2-0.9-1.8-2.5-1.8c-0.8,0-1.2,0-1.5,0.1V66.4z M150.6,73.2c0.3,0,0.8,0,1.3,0c1.6,0,3-0.6,3-2.2
			c0-1.5-1.4-2.2-3.1-2.2h-1.2L150.6,73.2L150.6,73.2z"/>
		<path class="st0" d="M169,60.3v5.9h5.7v-5.9h3.5v15.4h-3.5v-6.4H169v6.4h-3.5V60.3H169z"/>
	</g>
</g>
</svg>
